<?xml version="1.0" standalone="no"?>
<!DOCTYPE svg PUBLIC "-//W3C//DTD SVG 1.1//EN" "http://www.w3.org/Graphics/SVG/1.1/DTD/svg11.dtd" >
<svg xmlns="http://www.w3.org/2000/svg" xmlns:xlink="http://www.w3.org/1999/xlink" version="1.1">
<metadata>
Created by FontForge 20201107 at Sun Nov 20 13:16:31 2016
 By Jimmy Wärting
Copyright 1994. Igor A. MAXIMOV. TRANSCONSULTING.
</metadata>
<defs>
<font id="UmbrellaC-Plain" horiz-adv-x="819" >
  <font-face 
    font-family="UmbrellaC"
    font-weight="400"
    font-stretch="normal"
    units-per-em="2048"
    panose-1="2 0 5 3 0 0 0 0 0 0"
    ascent="1638"
    descent="-410"
    x-height="1237"
    cap-height="1300"
    bbox="-264 -457 2327 1784"
    underline-thickness="24"
    underline-position="-73"
    unicode-range="U+001D-FB02"
  />
<missing-glyph horiz-adv-x="280" 
 />
    <glyph glyph-name=".notdef" horiz-adv-x="280" 
 />
    <glyph glyph-name=".null" horiz-adv-x="0" 
 />
    <glyph glyph-name=".null" horiz-adv-x="0" 
 />
    <glyph glyph-name="nonmarkingreturn" horiz-adv-x="682" 
 />
    <glyph glyph-name="space" unicode=" " horiz-adv-x="608" 
 />
    <glyph glyph-name="exclam" unicode="!" horiz-adv-x="679" 
d="M475 1061v-842h-119l-243 260h114v817zM475 -43v-209h-123l-239 252h114v209z" />
    <glyph glyph-name="quotedbl" unicode="&#x22;" horiz-adv-x="679" 
d="M285 1108v-428h118v557l205 -205v-553h-121l-127 125v-125h-116l-207 201h119v557z" />
    <glyph glyph-name="numbersign" unicode="#" horiz-adv-x="1228" 
d="M453 1237l206 -209l-22 -188h-238zM793 1237l202 -209l-34 -252l155 -139l4 -88h-192l-17 -129l154 -139l2 -84h-186l-58 -398h-98l-201 201h92l56 395h192l-8 88h-172l41 269h190l-8 88h-172zM387 752h234l-37 -269h-236zM336 395h235l-84 -596h-100l-203 201h97z
M236 395l-21 -159l-164 159h185zM100 752h185l-21 -168z" />
    <glyph glyph-name="dollar" unicode="$" horiz-adv-x="1024" 
d="M387 973q-96 -27 -102 -137q6 -12 6 -21q3 -9 6 -27l-4 -4q-88 28 -143 86q-58 61 -58 121q0 91 74 150q70 58 221 67v-235zM387 637v-168q-91 6 -180 117q-89 112 -103 207q57 -54 127 -91q79 -42 156 -65zM352 104q-121 6 -211 99q-86 95 -86 196zM387 0v-156
q-61 24 -162 119q-95 92 -100 133l4 4q83 -100 258 -100zM625 188q-6 -24 -62 -51q-60 -28 -102 -33v508q219 -59 219 -276l-59 51q1 -14 2 -42.5t2 -43.5v-113zM709 1163l190 -190l-63 -66q-106 95 -220 101v-361v-4q-55 40 -155 78v483q59 -12 104 -41q44 -25 64 -59z
M625 1239q-57 40 -164 61v84q100 -85 108 -92q13 -12 56 -45v-8zM625 -369h-80l-56 56q-8 6 -17 15t-20 21t-18 19q-8 9 -17 18t-20 19.5t-16 15.5h80v205q113 0 217 94q102 94 102 234q0 108 -55 209l2 8q87 -63 147 -142q62 -81 91 -155q30 -80 30 -156q0 -133 -94 -221
q-93 -93 -276 -111v-129z" />
    <glyph glyph-name="percent" unicode="%" horiz-adv-x="1480" 
d="M1204 1204l-323 -571q-57 -26 -107 -107q-49 -76 -49 -166l-309 -544h-64l-168 184h123l746 1327zM659 788l-151 -268q-7 -4 -33 -10q-30 -7 -59 -10q-158 9 -285 188q73 -42 158 -51q119 3 182 108q61 104 61 246q0 141 -53 221q185 -120 185 -335v-50q0 -4 -5 -39z
M1376 209q0 -180 -69 -277q-69 -100 -183 -100q-150 0 -284 180v8q74 -53 147 -53q105 0 178 94q74 92 74 238q0 164 -51 238q188 -121 188 -328zM436 1120q-196 -15 -205 -280q2 -20 7 -58q1 -5 2 -16.5t2 -15.5q2 -10 2 -25h-2q-5 0 -11 -4q-66 6 -108 72q-40 59 -43 180
q0 131 67 207q63 75 150 75q59 0 96 -34t43 -101zM1141 449q-196 -27 -205 -269q6 -91 16 -125h-12q-59 0 -106 62q-50 68 -50 180q0 127 70 209q69 78 150 78q55 0 94 -33q37 -34 43 -102z" />
    <glyph glyph-name="ampersand" unicode="&#x26;" horiz-adv-x="1368" 
d="M788 563l84 -98q0 -69 -49 -154h-4l-332 394q150 86 222 155q75 69 75 180q0 77 -45 160l4 4q104 -82 183 -180q73 -94 73 -164q0 -115 -45 -172q-46 -60 -166 -125zM676 1032q-7 0 -19 4h-24q-51 0 -82 -28q-32 -25 -35 -80q3 -19 21 -80l-117 -68q-5 7 -55 82
q-22 28 -48 76q-20 34 -34 72q-11 29 -11 57q0 70 66 121q67 49 149 49q88 0 140 -49q53 -53 53 -148zM584 444q-145 -89 -191 -145q-47 -53 -47 -168q0 -27 2 -43q-83 9 -151 86q-66 75 -66 186q0 75 68 158q64 79 200 141zM1460 -236h-248l-168 168q-41 -50 -155 -116
q-112 -68 -246 -68q-269 0 -471 328v4q140 -113 293 -113q127 0 231 64q106 62 135 104l105 -119h135l-168 199q29 67 55 178q25 119 25 191h4l205 -193q1 -4 2 -11t2 -11v-33q0 -83 -47 -205z" />
    <glyph glyph-name="quotesingle" unicode="'" horiz-adv-x="491" 
d="M453 1116l-146 -416h-94l-193 224h111l133 376z" />
    <glyph glyph-name="parenleft" unicode="(" horiz-adv-x="720" 
d="M575 1024h-22q-40 0 -66 -33q-23 -29 -26 -80v-1015l114 -105v-115q-201 49 -331 220v4q64 -31 137 -31v90q-85 12 -125 47q-41 35 -41 133v922q0 88 49 131q51 42 117 45v90l194 -164v-139z" />
    <glyph glyph-name="parenright" unicode=")" horiz-adv-x="720" 
d="M553 131q0 -202 -82 -321q-81 -122 -227 -134l-215 189q165 9 221 121q53 112 53 333v646v79q0 103 -14 166q-12 65 -66 113l4 4q42 -9 197 -131q73 -58 100 -139q29 -83 29 -252v-674zM25 1321h8q44 0 82 -18q39 -20 61 -66q21 -47 21 -100v-41z" />
    <glyph glyph-name="asterisk" unicode="*" horiz-adv-x="1024" 
d="M596 1284l201 -172l-45 -51l184 -162v-127l-268 37l120 -225l-100 -60l-192 156l-105 -180l-244 235l68 -26l137 256l148 -273l100 72l-188 227l301 -18v123l-297 -31zM285 991l-129 -160l-131 125zM408 1188l-60 -88l-121 231z" />
    <glyph glyph-name="plus" unicode="+" horiz-adv-x="1228" 
d="M776 836v-256h-205v460zM453 461v-205h-252l-205 205h457zM1237 377v-117h-461v-461h-117l-206 201h118v461h461v119z" />
    <glyph glyph-name="comma" unicode="," horiz-adv-x="608" 
d="M520 63l-205 -315h-118l-177 164h119l209 336z" />
    <glyph glyph-name="hyphen" unicode="-" horiz-adv-x="679" 
d="M424 563l256 -235v-68h-457l-235 201h436v102z" />
    <glyph glyph-name="period" unicode="." horiz-adv-x="608" 
d="M457 -68v-184h-133l-224 252h109v236z" />
    <glyph glyph-name="slash" unicode="/" horiz-adv-x="567" 
d="M545 1171l-289 -1423h-88l-193 223h105l285 1360z" />
    <glyph glyph-name="zero" unicode="0" horiz-adv-x="1167" 
d="M332 432q0 -92 14 -192q13 -86 39 -164l-4 -4q-158 3 -227 172q-67 168 -70 336q0 342 90 501q88 156 279 156q99 0 174 -63q76 -64 94 -170q-32 4 -51 4q-151 0 -236 -134q-102 -156 -102 -442zM1133 381q0 -93 -25 -209q-23 -105 -84 -209q-59 -100 -147 -156
q-92 -59 -213 -59q-117 0 -230 72q-113 70 -207 192v8q117 -57 217 -57q134 0 238 90q102 88 154 244q53 154 53 340q0 131 -33 287q-35 165 -113 252l5 8q246 -130 317 -367q68 -239 68 -436z" />
    <glyph glyph-name="one" unicode="1" horiz-adv-x="757" 
d="M213 1180v-291l-219 186zM616 -252h-122l-301 252h124v1327l299 -260v-1319z" />
    <glyph glyph-name="two" unicode="2" horiz-adv-x="1146" 
d="M684 991h-47q-81 0 -148 -33q-64 -28 -108 -92q-38 -57 -41 -139h-80l-266 260v4l102 -14q30 118 121 188q89 68 197 68q113 0 192 -64q78 -66 78 -178zM1022 717v-15q0 -86 -23 -145q-26 -69 -77 -137l-234 -316h-407l403 547q104 146 104 289q0 101 -43 205
q79 -59 177 -178q100 -121 100 -250zM1081 -139v-113h-796l-269 252h797v104z" />
    <glyph glyph-name="three" unicode="3" horiz-adv-x="1003" 
d="M575 1008q-184 -3 -243 -160l-92 12l-240 236l104 -13q30 73 93 113q64 37 135 37q100 0 168 -59q69 -57 75 -166zM924 756q0 -124 -58 -191q-55 -67 -123 -94q22 -17 68 -55q53 -44 94 -113q35 -65 35 -156v-8q0 -120 -53 -205q-52 -85 -144 -137q-88 -49 -194 -49
q-107 0 -225 74q-114 71 -215 198v9q79 -58 223 -58q148 0 258 107q110 104 110 262q0 242 -208 344q188 77 188 285q0 123 -47 198q79 -53 184 -161q107 -110 107 -246v-4zM600 336l-336 289q28 4 55 4q91 0 164 -54q70 -55 99 -122q22 -45 22 -91q0 -10 -4 -26zM25 352
l315 -289h-12q-36 0 -101 19q-72 21 -133 88q-57 63 -69 182z" />
    <glyph glyph-name="four" unicode="4" horiz-adv-x="1167" 
d="M961 272l147 -125v-71h-147v-328h-105l-281 252h113v293h125v94h-125v940l273 -256v-799zM584 621l-156 -234h-268l424 666v-432zM584 76h-367l-217 217h584v-217z" />
    <glyph glyph-name="five" unicode="5" horiz-adv-x="1099" 
d="M924 1083v-102h-484v-154q-40 4 -88 4q-70 0 -155 -26v403h495v92zM651 545q-44 10 -114 10q-89 0 -189 -72l-217 185q103 75 221 75q109 0 191 -55q81 -57 108 -143zM340 68q-25 -5 -35 -5q-37 0 -94 23q-69 25 -127 102q-56 71 -68 168zM1036 180v-4q0 -177 -118 -301
q-121 -127 -289 -127q-147 0 -238 55q-80 50 -260 213v9q111 -66 225 -66q113 0 211 59q97 57 158 162q59 101 59 219q0 137 -71 265q165 -127 243 -236q80 -109 80 -248z" />
    <glyph glyph-name="six" unicode="6" horiz-adv-x="1099" 
d="M889 1092q-169 -169 -289 -349q-91 54 -197 54q-99 0 -190 -45q110 182 424 548zM696 496q-12 2 -37 2q-136 0 -237 -82q-116 -96 -119 -240q10 -71 16 -88q-76 0 -155 76q-81 75 -84 205q0 152 96 239q96 84 227 84q108 0 187 -49q83 -54 106 -147zM1071 172
q0 -158 -119 -289q-120 -135 -309 -135h-8q-78 0 -146 29q-72 28 -145 92q-75 66 -168 164v4q120 -66 236 -66q109 0 206 54q89 51 146 145q51 86 51 207q0 140 -80 270q336 -244 336 -475z" />
    <glyph glyph-name="seven" unicode="7" horiz-adv-x="1105" 
d="M1051 1083l-684 -1335h-76l-225 252h112l660 1300zM553 952h-279l-268 256h668z" />
    <glyph glyph-name="eight" unicode="8" horiz-adv-x="1044" 
d="M625 1004q-3 1 -9.5 2t-9.5 2h-31q-110 0 -184 -80q-50 -56 -53 -140q0 -26 6 -61q-212 81 -215 256q3 102 70 178q66 72 166 72q119 0 190 -62q70 -64 70 -167zM655 399q-36 29 -80 29q-50 0 -129 -43q-79 -48 -124 -125q-30 -48 -33 -117q0 -17 8 -63q-102 11 -164 86
q-55 66 -61 166q6 126 86 217q79 94 207 94q100 0 192 -86t98 -158zM948 811v-12q0 -196 -196 -295q114 -74 172 -180q59 -106 59 -215v-17q0 -88 -39 -162q-46 -84 -127 -133q-79 -49 -192 -49h-4q-257 0 -469 285l4 4q74 -74 229 -74q166 0 274 111q109 112 109 258
q0 110 -63 207q-64 94 -197 153q74 33 147 125q70 88 70 191q0 100 -74 200l4 4q137 -108 209 -194q84 -101 84 -207z" />
    <glyph glyph-name="nine" unicode="9" horiz-adv-x="1105" 
d="M662 1032h-5q-32 4 -47 4q-75 0 -135 -32q-89 -45 -139 -121q-51 -77 -51 -162q0 -53 32 -141l-4 -5q-79 15 -141 66q-61 47 -92 117q-32 72 -35 145q3 135 90 236q82 98 242 98q94 0 176 -61q86 -64 109 -144zM545 512q-85 -137 -144 -201q-131 91 -249 230h4
q85 -61 196 -70q69 3 193 41zM1040 692q0 -141 -114 -338q-118 -201 -254 -374q-123 -160 -195 -232h-80l-229 252h108q69 80 148 176q87 106 170 227q79 113 139 244q55 125 55 246q0 95 -24 154q-23 55 -84 129l4 4q172 -121 262 -215q94 -101 94 -273z" />
    <glyph glyph-name="colon" unicode=":" horiz-adv-x="608" 
d="M457 -72v-180h-133l-224 252h109v236zM457 496v-181h-133l-224 256h109v234z" />
    <glyph glyph-name="semicolon" unicode=";" horiz-adv-x="608" 
d="M520 512v-180h-129l-227 256h112v231zM285 -332h-113l-172 201h117l211 387l172 -215z" />
    <glyph glyph-name="less" unicode="&#x3c;" horiz-adv-x="1228" 
d="M1237 848v-123l-776 -352l-322 147v4l893 404v129zM1032 -16v129l205 -205v-127l-1036 475l-205 201v4z" />
    <glyph glyph-name="equal" unicode="=" horiz-adv-x="1228" 
d="M1237 600v-113h-1036l-205 201h1036v117zM1237 197v-117h-1036l-205 201h1036v118z" />
    <glyph glyph-name="greater" unicode="&#x3e;" horiz-adv-x="1228" 
d="M889 520l-121 -55l-567 260l-205 203zM1237 377v-121l-1036 -475l-205 203l1036 477v119z" />
    <glyph glyph-name="question" unicode="?" horiz-adv-x="755" 
d="M469 -84v-168h-125l-235 252h118v197h4zM700 735q0 -146 -71 -223q-75 -81 -154 -96v-201h-127l-244 260v4h123v137q134 31 215 123q82 94 82 222q0 98 -41 176l4 4q115 -115 166 -209q47 -92 47 -197zM420 995q-65 9 -96 9q-70 0 -148 -60l-184 215q68 74 168 74
q102 0 178 -64t82 -174z" />
    <glyph glyph-name="at" unicode="@" horiz-adv-x="1617" 
d="M1137 969l-4 -4l-58 22l-4 -4l88 -86q17 -66 17 -125q0 -169 -93 -297q-92 -127 -184 -127q-39 0 -39 55q0 44 92 322q85 257 92 291h-108l-39 -117q-65 154 -201 154q-108 0 -209 -72q-97 -69 -159 -193q-60 -126 -60 -260q0 -121 80 -204q0 -19 19 -78q20 -61 41 -94
l-5 -5q-120 63 -204 207q-82 137 -82 289v8q6 157 73 285q73 140 197 219q122 82 289 82q126 0 258 -59q135 -59 203 -209zM831 717q-86 -41 -147 -142q-64 -101 -76 -206q-5 -1 -14 -3.5t-14 -3.5q-15 0 -39 -6q-74 3 -115 62q-39 56 -39 123q0 147 94 280q95 127 211 127
q50 0 96 -49q48 -54 48 -135v-25q0 -2 -5 -22zM1149 311q-182 -228 -465 -231q-100 0 -121 24l-172 181l4 4q42 -34 121 -37q114 0 227 125q3 -35 35 -82q25 -40 86 -43q99 0 193 70q102 76 162 190q65 121 65 252q0 199 -139 373l4 4q4 -4 19.5 -20t47 -48.5t64.5 -66.5
q106 -106 170 -215q50 -94 53 -236v-12q0 -195 -131 -350l96 -97q-118 -204 -278 -264q-160 -63 -293 -63q-166 0 -281 59q-107 52 -215 152q-106 98 -196 188l10 4q52 -44 129 -94q64 -43 152 -68q82 -26 188 -26q168 0 322 86q153 85 241 241h-98z" />
    <glyph glyph-name="A" unicode="A" horiz-adv-x="1413" 
d="M893 1057l547 -1309h-131l-318 252h113l-559 1331h4zM680 748l-80 -228h-285l230 551h4zM924 172h-453l-156 -424h-100l-215 252h104l172 420h543z" />
    <glyph glyph-name="B" unicode="B" horiz-adv-x="1058" 
d="M618 936q-72 16 -194 16v-239h-272v495h135q169 0 245 -59q80 -62 86 -213zM940 739q0 -193 -154 -282q92 -59 162 -160q68 -103 68 -209q0 -164 -105 -252q-104 -88 -293 -88h-339l-236 244h328q407 0 407 360q0 220 -219 320q156 102 156 268q0 155 -84 227l4 4
q37 -19 110 -86q74 -68 134 -157q61 -91 61 -189zM684 332q-62 33 -213 33h-43v-277h-276v520h264q118 0 192 -71q73 -73 76 -205z" />
    <glyph glyph-name="C" unicode="C" horiz-adv-x="1292" 
d="M889 1004h-12q-111 0 -230 -64q-127 -68 -209 -190q-82 -127 -82 -289q0 -100 19 -178q20 -80 69 -152h-8q-197 80 -270 231q-74 154 -74 275q0 188 90 328q90 132 230 204q142 68 268 68q96 0 231 -53l29 84h4l268 -248l-49 -80q-137 64 -274 64zM1276 -160
q-192 -92 -352 -92q-289 0 -588 311v9q145 -97 336 -97q193 0 360 92l-20 101h4l223 -207z" />
    <glyph glyph-name="D" unicode="D" horiz-adv-x="1265" 
d="M397 1208q132 0 250 -92q109 -86 150 -209l-4 -4q-103 53 -293 53h-39v-835q-61 -24 -228 -33q-29 3 -40 6q-19 0 -31 2v1112h235zM1206 420q0 -195 -84 -342q-81 -151 -239 -242q-152 -88 -355 -88h-231l-248 240v4q93 -8 152 -8q235 0 407 75q174 76 273 226
q96 152 96 362q0 129 -29 209q-30 84 -102 180h4q155 -127 254 -270q102 -147 102 -346z" />
    <glyph glyph-name="E" unicode="E" horiz-adv-x="901" 
d="M596 1300l248 -260v-88h-414v-225h-278v481h444v92zM831 483v-98h-401v-293h-278v541h432v94zM614 104l248 -256v-100h-559l-268 252h579v104z" />
    <glyph glyph-name="F" unicode="F" horiz-adv-x="901" 
d="M879 1044v-104h-437v-227h-278v495h467v92zM811 465v-113h-369v-604h-131l-272 252h125v616h395v109z" />
    <glyph glyph-name="G" unicode="G" horiz-adv-x="1413" 
d="M1159 1192h4l221 -248l-61 -72h-6q-186 152 -393 152q-295 0 -441 -186q-144 -184 -147 -406q0 -58 10 -113q8 -42 29 -90q11 -33 37 -86h-9q-138 63 -231 191q-89 125 -92 307q0 150 74 289q73 138 208 223q137 84 318 84q130 0 242 -33q121 -36 186 -92zM1020 483v-315
l-340 315h340zM1356 360v-477q-202 -135 -475 -135q-264 0 -588 336v4q187 -117 387 -117q253 0 448 133v476h9z" />
    <glyph glyph-name="H" unicode="H" horiz-adv-x="1372" 
d="M455 1028v-307h-303v579zM459 365v-617h-140l-280 252h113v621h739v-256h-432zM1294 1040v-1292h-143l-264 252h108v1300z" />
    <glyph glyph-name="I" unicode="I" horiz-adv-x="675" 
d="M528 1024v-1276h-133l-286 252h106v1300z" />
    <glyph glyph-name="J" unicode="J" horiz-adv-x="1024" 
d="M913 72q0 -188 -108 -254q-110 -70 -232 -70q-59 0 -108 21q-56 23 -107 65q-46 36 -96 86q-34 37 -88 84v8q77 -45 168 -45q133 0 209 76q76 73 76 293v964h4l282 -264v-964zM70 344l311 -272q-41 -9 -43 -9q-110 0 -191 87q-77 86 -77 190v4z" />
    <glyph glyph-name="K" unicode="K" horiz-adv-x="1167" 
d="M438 1057v-66l-278 -270v579zM438 307v-559h-110l-281 252h113v659zM559 600l643 -852h-203l-313 252h109l-529 684l604 616l189 -180z" />
    <glyph glyph-name="L" unicode="L" horiz-adv-x="942" 
d="M463 1028v-928h-299v1200h8zM668 104l243 -247v-109h-587l-269 252h613v104z" />
    <glyph glyph-name="M" unicode="M" horiz-adv-x="1744" 
d="M528 532l-172 -784h-96l-219 248v4h106l209 995h4zM717 1032l147 -416l-133 -372h-4l-379 1079h4zM1212 532l-229 -772l-240 215l357 1024h8zM1444 1083l280 -1335h-92l-319 248v4h106l-274 1323h4z" />
    <glyph glyph-name="N" unicode="N" horiz-adv-x="1433" 
d="M446 713v-965h-100l-291 248v4h113v1061h6zM659 995l320 -391v-377h-8l-865 1073h5zM1368 1044v-1296h-8l-273 223v1329h9z" />
    <glyph glyph-name="O" unicode="O" horiz-adv-x="1638" 
d="M899 1020q-139 0 -274 -78q-135 -81 -213 -217q-82 -137 -82 -301v-12q0 -111 61 -248l-4 -4q-139 44 -221 190q-84 150 -84 318q0 137 76 268q77 133 207 217q131 84 288 84q140 0 275 -78q130 -75 174 -168l-4 -4q-103 33 -199 33zM1579 461q0 -174 -84 -344
q-87 -166 -244 -267q-153 -102 -348 -102h-8q-315 0 -625 356l4 5q195 -138 408 -138q186 0 336 99q148 95 231 252q82 155 82 325q0 166 -63 283q-58 114 -125 174l4 4q185 -135 313 -297q119 -159 119 -350z" />
    <glyph glyph-name="P" unicode="P" horiz-adv-x="962" 
d="M457 680q-46 -38 -185 -47q-32 4 -106 10v565l102 -4q182 0 242 -57q62 -59 80 -174q-72 14 -133 14v-307zM926 735q0 -187 -115 -311q-118 -124 -346 -127q0 2 -4 2h-4v-551h-140l-268 248v4h117v537h33q187 0 336 67q161 69 161 336q0 104 -63 193h4q61 -36 125 -103
q62 -65 115 -153q49 -82 49 -142z" />
    <glyph glyph-name="Q" unicode="Q" horiz-adv-x="1638" 
d="M653 1237q114 0 203 -41q99 -46 160 -98q59 -50 86 -107l-4 -4q-5 2 -24 6.5t-30 7.5q-52 10 -67 13q-34 6 -68 6h-20q-94 0 -182 -33q-109 -45 -185 -115q-83 -77 -137 -188q-52 -113 -55 -256v-16q0 -54 12 -103q12 -57 49 -145l-4 -4q-112 27 -207 168
q-95 142 -98 340v8q0 157 86 287q82 126 221 202q135 72 264 72zM1579 461q0 -128 -45 -256q-48 -133 -139 -234l127 -186l-80 -82l-176 162q-172 -117 -371 -117q-321 0 -625 356l4 5q198 -138 408 -138q66 0 205 43t194 107l213 -193l72 64l-211 192q80 108 133 213
q43 90 43 250q0 150 -47 250q-46 102 -141 207l4 4q177 -129 305 -295q124 -156 127 -352z" />
    <glyph glyph-name="R" unicode="R" horiz-adv-x="1064" 
d="M430 965v-256q-75 -23 -172 -29q-76 6 -94 20v508h160q129 0 190 -61q59 -59 74 -182h-158zM430 213v-465h-98l-277 252h109v616zM672 369l407 -621h-196l-303 252h100l-373 584v4q159 0 275 76t116 260q0 86 -18 123q-11 25 -70 116h8q171 -110 236 -237
q61 -125 61 -217q0 -250 -243 -340z" />
    <glyph glyph-name="S" unicode="S" horiz-adv-x="1126" 
d="M1008 965l-72 -68h-4q-81 69 -135 98t-129 29q-110 0 -191 -66q-83 -65 -86 -223l-4 -4q-114 17 -176 86q-59 68 -59 148q0 112 92 192t225 80q72 0 131 -20q58 -21 125 -76l68 51h4zM201 721h4q59 -47 92 -64q29 -15 65 -24q12 -2 35 -6t35 -6q34 -3 72 -9
q99 -19 164 -90q63 -68 75 -157h-4q-20 17 -69 32q-14 3 -52.5 12.5t-60.5 14.5q-59 14 -104 33q-201 83 -256 260zM780 549q287 -213 287 -428v-12q0 -175 -123 -267q-125 -94 -276 -94q-145 0 -312 127q-170 127 -188 172v8q16 -10 40 -25.5t25 -15.5q13 -8 84 -30
q55 -17 140 -17q96 0 186 43q89 41 145 127q56 83 56 203q0 98 -72 205zM92 336l377 -273v-4q-134 0 -252 74q-116 73 -125 203z" />
    <glyph glyph-name="T" unicode="T" horiz-adv-x="1085" 
d="M1030 969h-285v-1221h-131l-280 252h112v1208h373v92l211 -229v-102zM334 969h-127l-193 239h320v-239z" />
    <glyph glyph-name="U" unicode="U" horiz-adv-x="1310" 
d="M418 1032v-784q0 -132 96 -176q-9 -9 -33 -9q-153 0 -262 109q-106 109 -106 256v868zM1241 348q0 -207 -90 -340q-92 -136 -227 -196q-134 -64 -258 -64q-108 0 -232 74q-127 73 -215 168q-89 92 -102 145q88 -91 172 -129q79 -39 180 -39q114 0 213 41q105 40 178 148
q74 109 74 288v852l307 -264v-684z" />
    <glyph glyph-name="V" unicode="V" horiz-adv-x="1290" 
d="M487 952l148 -364l-137 -344h-4l-439 1056h6zM1231 1096l-508 -1319h-4l-217 190l508 1333h4z" />
    <glyph glyph-name="W" unicode="W" horiz-adv-x="1843" 
d="M414 977l116 -334l-120 -375l-369 996h4zM883 528l-246 -751l-215 182l319 1028h4zM1094 1040l120 -407l-145 -377l-311 1044h4zM1782 1065l-508 -1288l-219 186l516 1301h4z" />
    <glyph glyph-name="X" unicode="X" horiz-adv-x="1269" 
d="M520 1087l66 -114l-117 -197h-8l-295 524h6zM797 604l483 -856h-172l-324 248v4h113l-377 676l361 624h8l196 -213zM625 289l-328 -541h-59l-222 248v4h101l340 571h8z" />
    <glyph glyph-name="Y" unicode="Y" horiz-adv-x="1085" 
d="M401 1087l105 -167l-119 -207h-4l-348 587h8zM711 537v-789h-121l-287 248v4h119v571l407 729h9l188 -196z" />
    <glyph glyph-name="Z" unicode="Z" horiz-adv-x="1146" 
d="M688 1208l-131 -256h-240l-272 256h643zM1069 1096l-553 -996h-328l668 1200zM1124 -152v-100h-831l-260 252h839v109z" />
    <glyph glyph-name="bracketleft" unicode="[" horiz-adv-x="720" 
d="M659 995h-198v-999l203 -180v-109h-320l-244 209h336v100h-221v1192h221v101l223 -193v-121z" />
    <glyph glyph-name="backslash" unicode="\" horiz-adv-x="567" 
d="M43 1133l674 -1360h-230l-202 198h123l-672 1360z" />
    <glyph glyph-name="bracketright" unicode="]" horiz-adv-x="720" 
d="M553 -293h-305l-228 209h283v1393l250 -226v-1376zM193 1208v-141l-156 141h156z" />
    <glyph glyph-name="asciicircum" unicode="^" 
 />
    <glyph glyph-name="underscore" unicode="_" horiz-adv-x="1024" 
d="M1233 -356v-101h-1028l-205 201h1024v104z" />
    <glyph glyph-name="grave" unicode="`" horiz-adv-x="679" 
d="M147 1784l218 -172l118 -256h-151l-148 143h101z" />
    <glyph glyph-name="a" unicode="a" horiz-adv-x="1413" 
d="M893 1057l547 -1309h-131l-318 252h113l-559 1331h4zM680 748l-80 -228h-285l230 551h4zM924 172h-453l-156 -424h-100l-215 252h104l172 420h543z" />
    <glyph glyph-name="b" unicode="b" horiz-adv-x="1064" 
d="M608 936q-72 16 -194 16v-239h-273v495h135q170 0 246 -59q80 -62 86 -213zM930 739q0 -193 -154 -282q92 -59 162 -160q68 -103 68 -209q0 -164 -105 -252q-104 -88 -293 -88h-340l-235 244h327q408 0 408 360q0 220 -219 320q156 102 156 268q0 158 -84 227l4 4
q37 -19 110 -86q71 -65 133 -157t62 -189zM674 332q-62 33 -213 33h-43v-277h-277v520h265q121 0 192 -71q73 -73 76 -205z" />
    <glyph glyph-name="c" unicode="c" horiz-adv-x="1292" 
d="M889 1004h-12q-111 0 -230 -64q-127 -68 -209 -190q-82 -127 -82 -289q0 -100 19 -178q20 -80 69 -152h-8q-197 80 -270 231q-74 154 -74 275q0 188 90 328q90 132 230 204q142 68 268 68q96 0 231 -53l29 84h4l268 -248l-49 -80q-137 64 -274 64zM1276 -160
q-192 -92 -352 -92q-289 0 -588 311v9q145 -97 336 -97q193 0 360 92l-20 101h4l223 -207z" />
    <glyph glyph-name="d" unicode="d" horiz-adv-x="1269" 
d="M408 1208q131 0 249 -92q110 -89 150 -209l-4 -4q-106 53 -293 53h-39v-835q-65 -24 -227 -33q-31 3 -41 6q-19 0 -31 2v1112h236zM1217 420q0 -195 -84 -342q-85 -152 -240 -242q-152 -88 -354 -88h-232l-248 240v4q93 -8 152 -8q235 0 407 75q174 76 273 226
q96 152 96 362q0 129 -29 209q-27 75 -102 180h4q155 -127 254 -270q103 -148 103 -346z" />
    <glyph glyph-name="e" unicode="e" horiz-adv-x="921" 
d="M606 1300l248 -260v-88h-414v-225h-278v481h444v92zM842 483v-98h-402v-293h-278v541h432v94zM625 104l247 -256v-100h-559l-268 252h580v104z" />
    <glyph glyph-name="f" unicode="f" horiz-adv-x="921" 
d="M889 1044v-104h-436v-227h-279v495h467v92zM821 465v-113h-368v-604h-131l-273 252h125v616h395v109z" />
    <glyph glyph-name="g" unicode="g" horiz-adv-x="1413" 
d="M1159 1192h4l221 -248l-61 -72h-6q-186 152 -393 152q-295 0 -441 -186q-144 -184 -147 -406q0 -58 10 -113q8 -42 29 -90q11 -33 37 -86h-9q-138 63 -231 191q-89 125 -92 307q0 150 74 289q73 138 208 223q137 84 318 84q130 0 242 -33q121 -36 186 -92zM1020 483v-315
l-340 315h340zM1356 360v-477q-202 -135 -475 -135q-264 0 -588 336v4q187 -117 387 -117q253 0 448 133v476h9z" />
    <glyph glyph-name="h" unicode="h" horiz-adv-x="1392" 
d="M455 1028v-307h-303v579zM459 365v-617h-140l-280 252h113v621h739v-256h-432zM1294 1040v-1292h-143l-264 252h108v1300z" />
    <glyph glyph-name="i" unicode="i" horiz-adv-x="675" 
d="M528 1024v-1276h-133l-286 252h106v1300z" />
    <glyph glyph-name="j" unicode="j" horiz-adv-x="1024" 
d="M913 72q0 -188 -108 -254q-110 -70 -232 -70q-59 0 -108 21q-56 23 -107 65q-46 36 -96 86q-34 37 -88 84v8q77 -45 168 -45q133 0 209 76q76 73 76 293v964h4l282 -264v-964zM70 344l311 -272q-41 -9 -43 -9q-110 0 -191 87q-77 86 -77 190v4z" />
    <glyph glyph-name="k" unicode="k" horiz-adv-x="1167" 
d="M438 1057v-66l-278 -270v579zM438 307v-559h-110l-281 252h113v659zM559 600l643 -852h-203l-313 252h109l-529 684l604 616l189 -180z" />
    <glyph glyph-name="l" unicode="l" horiz-adv-x="942" 
d="M463 1028v-928h-299v1200h8zM668 104l243 -247v-109h-587l-269 252h613v104z" />
    <glyph glyph-name="m" unicode="m" horiz-adv-x="1744" 
d="M528 532l-172 -784h-96l-219 248v4h106l209 995h4zM717 1032l147 -416l-133 -372h-4l-379 1079h4zM1212 532l-229 -772l-240 215l357 1024h8zM1444 1083l280 -1335h-92l-319 248v4h106l-274 1323h4z" />
    <glyph glyph-name="n" unicode="n" horiz-adv-x="1433" 
d="M446 713v-965h-100l-291 248v4h113v1061h6zM659 995l320 -391v-377h-8l-865 1073h5zM1368 1044v-1296h-8l-273 223v1329h9z" />
    <glyph glyph-name="o" unicode="o" horiz-adv-x="1638" 
d="M899 1020q-139 0 -274 -78q-135 -81 -213 -217q-82 -137 -82 -301v-12q0 -111 61 -248l-4 -4q-139 44 -221 190q-84 150 -84 318q0 137 76 268q77 133 207 217q131 84 288 84q140 0 275 -78q130 -75 174 -168l-4 -4q-103 33 -199 33zM1579 461q0 -174 -84 -344
q-87 -166 -244 -267q-153 -102 -348 -102h-8q-315 0 -625 356l4 5q195 -138 408 -138q186 0 336 99q148 95 231 252q82 155 82 325q0 166 -63 283q-58 114 -125 174l4 4q185 -135 313 -297q119 -159 119 -350z" />
    <glyph glyph-name="p" unicode="p" horiz-adv-x="962" 
d="M457 680q-46 -38 -185 -47q-32 4 -106 10v565l102 -4q182 0 242 -57q62 -59 80 -174q-72 14 -133 14v-307zM926 735q0 -187 -115 -311q-118 -124 -346 -127q0 2 -4 2h-4v-551h-140l-268 248v4h117v537h33q187 0 336 67q161 69 161 336q0 104 -63 193h4q61 -36 125 -103
q62 -65 115 -153q49 -82 49 -142z" />
    <glyph glyph-name="q" unicode="q" horiz-adv-x="1638" 
d="M653 1237q114 0 203 -41q99 -46 160 -98q59 -50 86 -107l-4 -4q-5 2 -24 6.5t-30 7.5q-52 10 -67 13q-34 6 -68 6h-20q-94 0 -182 -33q-109 -45 -185 -115q-83 -77 -137 -188q-52 -113 -55 -256v-16q0 -54 12 -103q12 -57 49 -145l-4 -4q-112 27 -207 168
q-95 142 -98 340v8q0 157 86 287q82 126 221 202q135 72 264 72zM1579 461q0 -128 -45 -256q-48 -133 -139 -234l127 -186l-80 -82l-176 162q-172 -117 -371 -117q-321 0 -625 356l4 5q198 -138 408 -138q66 0 205 43t194 107l213 -193l72 64l-211 192q80 108 133 213
q43 90 43 250q0 150 -47 250q-46 102 -141 207l4 4q177 -129 305 -295q124 -156 127 -352z" />
    <glyph glyph-name="r" unicode="r" horiz-adv-x="1064" 
d="M430 965v-256q-75 -23 -172 -29q-76 6 -94 20v508h160q129 0 190 -61q59 -59 74 -182h-158zM430 213v-465h-98l-277 252h109v616zM672 369l407 -621h-196l-303 252h100l-373 584v4q159 0 275 76t116 260q0 86 -18 123q-11 25 -70 116h8q171 -110 236 -237
q61 -125 61 -217q0 -250 -243 -340z" />
    <glyph glyph-name="s" unicode="s" horiz-adv-x="1126" 
d="M1008 965l-72 -68h-4q-81 69 -135 98t-129 29q-110 0 -191 -66q-83 -65 -86 -223l-4 -4q-114 17 -176 86q-59 68 -59 148q0 112 92 192t225 80q72 0 131 -20q58 -21 125 -76l68 51h4zM201 721h4q59 -47 92 -64q29 -15 65 -24q12 -2 35 -6t35 -6q34 -3 72 -9
q99 -19 164 -90q63 -68 75 -157h-4q-20 17 -69 32q-14 3 -52.5 12.5t-60.5 14.5q-59 14 -104 33q-201 83 -256 260zM780 549q287 -213 287 -428v-12q0 -175 -123 -267q-125 -94 -276 -94q-145 0 -312 127q-170 127 -188 172v8q16 -10 40 -25.5t25 -15.5q13 -8 84 -30
q55 -17 140 -17q96 0 186 43q89 41 145 127q56 83 56 203q0 98 -72 205zM92 336l377 -273v-4q-134 0 -252 74q-116 73 -125 203z" />
    <glyph glyph-name="t" unicode="t" horiz-adv-x="1085" 
d="M1030 969h-285v-1221h-131l-280 252h112v1208h373v92l211 -229v-102zM334 969h-127l-193 239h320v-239z" />
    <glyph glyph-name="u" unicode="u" horiz-adv-x="1310" 
d="M418 1032v-784q0 -132 96 -176q-9 -9 -33 -9q-153 0 -262 109q-106 109 -106 256v868zM1241 348q0 -207 -90 -340q-92 -136 -227 -196q-134 -64 -258 -64q-108 0 -232 74q-127 73 -215 168q-89 92 -102 145q88 -91 172 -129q79 -39 180 -39q114 0 213 41q105 40 178 148
q74 109 74 288v852l307 -264v-684z" />
    <glyph glyph-name="v" unicode="v" horiz-adv-x="1290" 
d="M487 952l148 -364l-137 -344h-4l-439 1056h6zM1231 1096l-508 -1319h-4l-217 190l508 1333h4z" />
    <glyph glyph-name="w" unicode="w" horiz-adv-x="1843" 
d="M414 977l116 -334l-120 -375l-369 996h4zM883 528l-246 -751l-215 182l319 1028h4zM1094 1040l120 -407l-145 -377l-311 1044h4zM1782 1065l-508 -1288l-219 186l516 1301h4z" />
    <glyph glyph-name="x" unicode="x" horiz-adv-x="1269" 
d="M520 1087l66 -114l-117 -197h-8l-295 524h6zM797 604l483 -856h-172l-324 248v4h113l-377 676l361 624h8l196 -213zM625 289l-328 -541h-59l-222 248v4h101l340 571h8z" />
    <glyph glyph-name="y" unicode="y" horiz-adv-x="1085" 
d="M401 1087l105 -167l-119 -207h-4l-348 587h8zM711 537v-789h-121l-287 248v4h119v571l407 729h9l188 -196z" />
    <glyph glyph-name="z" unicode="z" horiz-adv-x="1146" 
d="M688 1208l-131 -256h-240l-272 256h643zM1069 1096l-553 -996h-328l668 1200zM1124 -152v-100h-831l-260 252h839v109z" />
    <glyph glyph-name="braceleft" unicode="{" horiz-adv-x="720" 
d="M395 1225v71l205 -151v-74h-51q-85 0 -88 -151v-265q0 -79 -43 -143q-44 -68 -111 -92q154 -62 154 -244v-268l139 -144v-71h-113q-91 0 -182 59q-90 55 -166 152h4q30 -30 62 -41q35 -15 94 -15h96v72h-98q-82 0 -82 152v213q0 115 -27 176q-26 60 -129 110v4
q87 35 121 101q35 68 35 135v264q0 59 23 107q21 43 61 43h96z" />
    <glyph glyph-name="bar" unicode="|" horiz-adv-x="456" 
d="M391 1032v-1233h-119l-204 201h116v1237z" />
    <glyph glyph-name="braceright" unicode="}" horiz-adv-x="720" 
d="M553 721q0 -117 43 -154l113 -88v-76q-153 0 -156 -235v-272q0 -203 -193 -203h-155l-205 160h113q83 0 137 51q53 50 53 147v273q0 104 39 172q37 67 115 67v78h-8q-146 0 -146 240v172v75q0 58 -8 91q-8 31 -47 73l4 4l201 -159q47 -39 75 -74q25 -31 25 -76v-266z
M184 1128l-184 148h96q88 0 88 -148z" />
    <glyph glyph-name="asciitilde" unicode="~" horiz-adv-x="1290" 
d="M1235 365q-116 -175 -260 -181q-65 3 -211 74q-140 70 -221 70q-123 0 -185 -148l-204 205q64 143 188 143q54 0 107 -18q44 -15 98 -43q59 -29 108 -49q67 -28 115 -31q146 6 256 180z" />
    <glyph glyph-name="uni00A0" unicode="&#xa0;" horiz-adv-x="249" 
 />
    <glyph glyph-name="exclamdown" unicode="&#xa1;" horiz-adv-x="679" 
d="M500 1079v-207h-119l-242 252h113v203zM500 -252h-115l-246 260h113v815l248 -235v-840z" />
    <glyph glyph-name="cent" unicode="&#xa2;" horiz-adv-x="1140" 
d="M399 696q-57 -57 -77 -104q-22 -52 -25 -123q1 -6 2 -21t2 -22q0 -37 2 -53q-97 3 -160 102q-60 97 -63 221q0 128 88 219q87 93 231 93v-312zM399 231v-143q-181 156 -219 227q106 -66 219 -84zM633 -139h-84l-154 159h76v216q239 27 352 280l213 -180
q-23 -116 -116 -209q-93 -90 -287 -102v-164zM629 836v-424q-64 -64 -158 -64v660q88 0 166 -60q75 -60 84 -129q-27 7 -92 17zM588 1100q-36 11 -62 18q-30 4 -39 6v80q24 -21 101 -104zM811 897q7 -6 31.5 -28t42.5 -38q51 -45 96 -110q47 -69 59 -137l-84 -9
q-87 75 -204 197h88q0 7 -9 59q-7 40 -20 66z" />
    <glyph glyph-name="sterling" unicode="&#xa3;" horiz-adv-x="1140" 
d="M709 1012q-16 4 -23 4h-31q-91 0 -153 -68t-62 -184q0 -97 72 -184h-80q-116 56 -178 149q-60 86 -66 191q3 127 86 219q81 90 205 90q94 0 158 -58q66 -54 72 -159zM987 680h-98l-176 180h114q0 146 -30 240q90 -93 139 -191q48 -99 51 -229zM608 68q-99 15 -180 96
q56 75 74 110q22 42 22 113q0 65 -8 92h240v101l209 -181v-118h-260q-21 -129 -97 -213zM403 479q13 -41 13 -84q0 -32 -29 -114h-68q-11 11 -33.5 34.5t-35.5 36.5l-68 68q-12 13 -34.5 34t-26.5 25h282zM440 41q109 -74 176 -74q108 0 183 47q77 45 133 166l205 -200
q-49 -109 -144 -173q-89 -63 -205 -63q-67 0 -131 47q-20 14 -67 44t-72 48q-68 45 -131 45h-8q-82 0 -131 -137h-80l-197 209h105q0 55 47 96q45 39 100 39q80 0 217 -94z" />
    <glyph glyph-name="currency" unicode="&#xa4;" 
 />
    <glyph glyph-name="yen" unicode="&#xa5;" horiz-adv-x="1216" 
d="M549 920l-125 -207l-348 587l368 -213zM831 709l189 -138v-110h-164v-4l164 -117v-109h-268v-483h-123l-285 252h121v492h299v104h-293l74 129h219v102h-160l268 473l195 -196zM340 492v-244l-299 244h299zM340 600h-147l-152 125h227z" />
    <glyph glyph-name="brokenbar" unicode="&#xa6;" horiz-adv-x="403" 
d="M387 1049v-1242h-111l-196 193h100v1243z" />
    <glyph glyph-name="section" unicode="&#xa7;" horiz-adv-x="1024" 
d="M549 -315q-107 0 -184 32q-82 34 -146 119q-65 87 -115 240l5 4q115 -193 323 -193q110 0 189 64t79 166q0 112 -79 176q117 29 157 90q37 61 37 188q28 -49 72 -161q37 -101 37 -150q0 -151 -181 -188q1 -5 17 -60q14 -48 18 -65q6 -27 6 -47q0 -215 -235 -215zM600 121
q0 -47 -29 -80l-256 178q-100 70 -143 148q-31 56 -92 249l4 5q57 -79 111 -121q38 -30 180 -125q114 -74 174 -137q51 -54 51 -117zM727 537q0 -57 -20 -93q-21 -38 -56 -41q-6 55 -164 168t-227 113q-55 0 -67 -59q-50 41 -50 100q0 41 35 88q34 43 98 43q57 0 166 -59
q110 -58 199 -135q86 -77 86 -125zM188 135l115 -119q-98 30 -119 119h4zM252 940l-33 -4q-18 53 -18 76l4 4q10 -31 47 -76zM700 1104l72 51l121 -190l-84 -58q-119 80 -156 101q-51 28 -108 28q-109 0 -168 -71q-41 18 -70 57q-31 42 -31 82q0 143 160 143q139 0 264 -143
z" />
    <glyph glyph-name="dieresis" unicode="&#xa8;" horiz-adv-x="921" 
d="M606 1300l248 -260v-88h-414v-225h-278v481h444v92zM842 483v-98h-402v-293h-278v541h432v94zM625 104l247 -256v-100h-559l-268 252h580v104zM137 1520v225l164 -166v-227h-72l-159 168h67zM522 1524v227l168 -168v-231h-80l-172 172h84z" />
    <glyph glyph-name="copyright" unicode="&#xa9;" horiz-adv-x="1640" 
d="M893 995l4 4q127 -88 215 -196q97 -117 109 -223h-105l-180 180q-4 1 -11.5 2t-11.5 2h-28q-139 0 -217 -90q-73 -88 -76 -234q0 -47 16 -100q-99 20 -166 115q-62 85 -65 204q0 88 35 166q34 73 100 117q65 41 152 41q85 0 149 -47q63 -48 84 -135h102q-21 130 -106 194
zM868 1020q-70 55 -209 55q-184 0 -292 -117q-107 -119 -107 -299q0 -95 37 -176q0 -29 -4 -43q9 -172 80 -284l-8 -4q-280 157 -289 507q0 119 45 226q45 112 119 186q78 78 182 123q107 43 225 43q339 0 494 -293q-140 76 -273 76zM1145 381q-59 -121 -184 -209
q-122 -85 -302 -88q-201 141 -290 272l4 4q77 -74 145 -96q70 -24 146 -24q154 0 237 92q79 85 98 192zM864 -231q-116 0 -211 28q-90 27 -166 84q-73 53 -159 144q-85 88 -176 176l4 4q215 -221 487 -221q175 0 332 86q150 84 250 241q96 158 96 348q0 122 -45 244
q-47 124 -135 209h4q212 -203 305 -334q90 -128 90 -329v-9q-3 -173 -67 -295q-70 -134 -168 -213q-101 -82 -220 -122q-121 -41 -221 -41z" />
    <glyph glyph-name="ordfeminine" unicode="&#xaa;" 
 />
    <glyph glyph-name="guillemotleft" unicode="&#xab;" horiz-adv-x="907" 
d="M588 0l-260 307l260 326l151 -205l-110 -139l270 -541h-135l-277 236l-4 -4l109 -232h-131l-297 252h117l-256 307l260 318l88 -113l-172 -209l268 -303h119z" />
    <glyph glyph-name="logicalnot" unicode="&#xac;" 
 />
    <glyph glyph-name="uni00AD" unicode="&#xad;" 
 />
    <glyph glyph-name="registered" unicode="&#xae;" horiz-adv-x="1640" 
d="M1321 659q0 131 -49 250q-53 121 -131 199l4 4q230 -210 311 -346q84 -141 84 -326q0 -157 -82 -315t-237 -258q-154 -98 -357 -98q-167 0 -276 53t-211 155q-36 35 -109 108.5t-112 111.5v8q64 -67 141 -117q70 -47 164 -76q92 -28 182 -28q187 0 346 90q155 88 244 248
q88 155 88 337zM1079 236q-36 -40 -98 -84l-113 112h119l-231 348q196 30 205 219q0 90 -50 146l4 4l185 -184q76 -76 76 -181q0 -191 -199 -221zM856 836q0 -62 -33 -88h-114v-48h-217v265h180q184 0 184 -129zM709 399v-352h-101l-217 217h101v348h155l137 -213h-75z
M387 764q-85 -137 -94 -324q6 -159 76 -284l-9 -4q-281 167 -284 507q0 162 78 297q76 132 206 207q133 74 283 74q339 0 498 -289v-8q-128 76 -277 76q-71 41 -159 41h-318v-293z" />
    <glyph glyph-name="macron" unicode="&#xaf;" 
 />
    <glyph glyph-name="degree" unicode="&#xb0;" 
 />
    <glyph glyph-name="plusminus" unicode="&#xb1;" horiz-adv-x="1228" 
d="M776 836v-160h-205v364zM453 559v-207h-252l-205 207h457zM1237 471v-115h-461v-235h-272l-51 76h118v362h461v117zM1032 0v121l205 -205v-117h-1036l-205 201h1036z" />
    <glyph glyph-name="uni00B2" unicode="&#xb2;" horiz-adv-x="727" 
d="M420 1087h-33q-70 0 -131 -43q-59 -44 -59 -116h-54l-172 155v4l70 -12q22 79 76 119q53 39 127 39q76 0 127 -39q49 -40 49 -107zM641 920q0 -86 -70 -177l-147 -188h-264l260 330q67 82 67 176q0 66 -26 119q48 -31 117 -107q63 -72 63 -153zM676 408v-68h-516
l-172 152h516v61z" />
    <glyph glyph-name="uni00B3" unicode="&#xb3;" horiz-adv-x="727" 
d="M373 1104q-116 -3 -158 -100l-59 8l-156 143l68 -6q37 88 147 88q72 0 113 -35q42 -33 45 -98zM600 948q0 -128 -117 -172q1 -1 13 -7.5t20 -12.5q21 -12 43 -37q22 -22 37 -60q16 -40 16 -84q0 -103 -75 -169q-72 -63 -181 -66q-146 0 -284 164v4q47 -33 143 -33
q95 0 168 64q74 65 74 157q0 146 -138 211q121 44 121 168q0 77 -28 125q56 -34 120 -98q68 -68 68 -150v-4zM391 696l-219 172q3 1 10.5 2t10.5 2h20q86 0 137 -63q43 -52 43 -96q0 -11 -2 -17zM16 705l207 -173h-14q-49 0 -111 35q-70 40 -82 138z" />
    <glyph glyph-name="acute" unicode="&#xb4;" horiz-adv-x="679" 
d="M549 1649l-141 -293h-72l-135 137h88l135 270z" />
    <glyph glyph-name="mu" unicode="&#xb5;" 
 />
    <glyph glyph-name="paragraph" unicode="&#xb6;" 
 />
    <glyph glyph-name="periodcentered" unicode="&#xb7;" horiz-adv-x="608" 
d="M213 403v234l248 -309v-181h-133l-228 256h113z" />
    <glyph glyph-name="cedilla" unicode="&#xb8;" horiz-adv-x="921" 
d="M606 1300l248 -260v-88h-414v-225h-278v481h444v92zM842 483v-98h-402v-293h-278v541h432v94zM625 104l247 -256v-100h-559l-268 252h580v104zM137 1520v225l164 -166v-227h-72l-159 168h67zM522 1524v227l168 -168v-231h-80l-172 172h84z" />
    <glyph glyph-name="uni00B9" unicode="&#xb9;" horiz-adv-x="2129" 
d="M1356 1049v-1295h-10l-269 223v1328h8zM653 999l316 -395v-377h-8l-859 1078h4zM440 713v-959h-100l-289 246v2h113v1057h6zM1815 309l251 -233v-66h-417l-234 197h397zM1823 989q-191 -30 -197 -272q6 -92 16 -125q-69 0 -110 59q-45 65 -45 185q0 129 61 211
q60 77 144 77q48 0 88 -34q34 -27 43 -101zM2066 750q0 -178 -69 -275q-63 -97 -180 -100q-149 0 -277 174v10q63 -52 139 -55q104 0 168 94q72 90 72 240q0 166 -51 237q198 -122 198 -325z" />
    <glyph glyph-name="ordmasculine" unicode="&#xba;" 
 />
    <glyph glyph-name="guillemotright" unicode="&#xbb;" horiz-adv-x="907" 
d="M80 621l252 -80l180 -234l-260 -307h129l256 311l-252 318l295 -97l209 -260l-373 -524h-84l-113 164l-110 -164h-88l-176 252h127l256 311z" />
    <glyph glyph-name="onequarter" unicode="&#xbc;" horiz-adv-x="1820" 
d="M1548 72v59h-84v565l176 -155v-478l97 -75v-43h-97v-197h-67l-180 152h71v172h84zM1397 -55h-238l-143 127h381v-127zM1296 131h-172l273 397v-260zM1468 1100l-620 -1045l-184 -307h-60l-164 189h115l621 1046l151 254zM231 1200v-176l-139 117zM299 492v800h4l193 -159
v-793h-80l-197 152h80z" />
    <glyph glyph-name="onehalf" unicode="&#xbd;" horiz-adv-x="1820" 
d="M1309 1100l-625 -1045l-184 -307h-60l-159 189h110l625 1046l151 254zM193 1200v-176l-142 117zM260 492v800h4l197 -159v-793h-84l-197 152h80zM1239 336l-172 156v4l70 -13q15 70 71 115q55 43 123 43q173 0 185 -145q-92 0 -156 -37q-65 -41 -68 -123h-53zM1516 -37
h-265l281 348q51 66 51 158q0 39 -12 80l-15 39q181 -150 181 -260q0 -91 -70 -176zM1079 -100h520v63l177 -147v-68h-521z" />
    <glyph glyph-name="threequarters" unicode="&#xbe;" horiz-adv-x="1820" 
d="M1548 72v59h-84v565l176 -155v-478l97 -75v-43h-97v-197h-67l-180 152h71v172h84zM1397 -55h-238l-143 127h381v-127zM1296 131h-172l273 397v-260zM1489 1100l-621 -1045l-184 -307h-55l-160 189h106l625 1046l152 254zM545 700q0 77 -35 123q-35 50 -102 80
q53 22 92 64q32 38 32 112q0 62 -32 113q70 -38 129 -105q59 -68 59 -139q0 -120 -117 -172q129 -86 129 -201q0 -100 -73 -167q-74 -68 -187 -68q-124 0 -280 164v8q55 -37 143 -37q97 0 172 66q70 64 70 159zM479 696l-219 172q16 4 43 4q41 0 84 -24q46 -25 68 -68
q24 -43 24 -84zM104 705l207 -173q-87 0 -145 52q-56 50 -62 121zM88 1153l68 -8q19 42 59 67q45 25 92 25q66 0 109 -37q43 -40 49 -100q-121 0 -162 -96l-59 8z" />
    <glyph glyph-name="questiondown" unicode="&#xbf;" horiz-adv-x="755" 
d="M584 1071v-199h-131l-238 252h121v203zM584 608v-209q-54 4 -72 4q-138 0 -203 -71q-87 -93 -90 -240l4 -4v-4q-103 20 -151 102q-47 77 -47 166q3 112 84 187q77 71 227 77v215zM731 -147q-105 -105 -266 -105h-4q-105 0 -193 70q-89 71 -205 233l5 4q83 -80 184 -80
q157 0 289 97z" />
    <glyph glyph-name="Agrave" unicode="&#xc0;" horiz-adv-x="1413" 
d="M893 1057l547 -1309h-131l-318 252h113l-559 1331h4zM680 748l-80 -228h-285l230 551h4zM924 172h-453l-156 -424h-100l-215 252h104l172 420h543z" />
    <glyph glyph-name="Aacute" unicode="&#xc1;" horiz-adv-x="1044" 
d="M858 1049v-101h-434v-241h-279v501h467v90zM707 508q36 -17 84 -59q41 -33 90 -82q46 -49 61 -72q72 -110 72 -205q0 -163 -109 -250q-109 -86 -289 -86h-340l-235 246h326q200 0 303 80q98 76 98 264q0 28 -16 78q-14 42 -45 86zM672 324q-57 32 -205 32h-41v-262h-279
v506h259q121 0 190 -72q76 -79 76 -204z" />
    <glyph glyph-name="Acircumflex" unicode="&#xc2;" horiz-adv-x="1064" 
d="M618 936q-72 16 -194 16v-239h-272v495h135q169 0 245 -59q80 -62 86 -213zM940 739q0 -193 -154 -282q92 -59 162 -160q68 -103 68 -209q0 -164 -105 -252q-104 -88 -293 -88h-339l-236 244h328q407 0 407 360q0 220 -219 320q156 102 156 268q0 155 -84 227l4 4
q37 -19 110 -86q74 -68 134 -157q61 -91 61 -189zM684 332q-62 33 -213 33h-43v-277h-276v520h264q118 0 192 -71q73 -73 76 -205z" />
    <glyph glyph-name="Atilde" unicode="&#xc3;" horiz-adv-x="921" 
d="M453 940v-1192h-131l-273 252h125v1208h467v92l248 -256v-104h-436z" />
    <glyph glyph-name="Adieresis" unicode="&#xc4;" horiz-adv-x="1433" 
d="M825 1049l322 -943h-229l-406 1215zM1225 104l200 -254v-96h-1210l-184 246h1194v104zM651 582l-174 -478h-262l311 844z" />
    <glyph glyph-name="Aring" unicode="&#xc5;" horiz-adv-x="921" 
d="M606 1300l248 -260v-88h-414v-225h-278v481h444v92zM842 483v-98h-402v-293h-278v541h432v94zM625 104l247 -256v-100h-559l-268 252h580v104z" />
    <glyph glyph-name="AE" unicode="&#xc6;" horiz-adv-x="1781" 
d="M655 864v-147l-589 581l479 -325zM655 186l-348 -432h-59l-217 248h98l526 643v-459zM1147 612l657 -858h-202l-312 252h107l-525 682l603 615l186 -181zM1044 305v-551h-110l-279 246h111v651zM1044 1057v-68l-278 -272v586z" />
    <glyph glyph-name="Ccedilla" unicode="&#xc7;" horiz-adv-x="1126" 
d="M733 1006q-67 0 -137 -21q-70 -17 -131 -53q-58 -39 -74 -84l-90 12l-240 232l105 -17q32 80 90 109q17 10 80 24q64 11 106 11q139 0 213 -50q26 -17 52 -65q23 -47 26 -98zM1069 752q0 -122 -55 -189q-61 -70 -117 -92q4 -4 13 -11.5l24 -20t27 -23.5q48 -37 90 -113
q34 -61 34 -160q0 -116 -51 -202q-24 -44 -63 -80q-51 -44 -74 -58q-61 -27 -129 -36q-71 -9 -180 -9q-107 0 -223 72q-186 124 -215 213q85 -61 223 -61q237 0 372 106q50 40 78 109q33 70 33 149q0 237 -207 340q187 71 187 279q0 115 -48 194q79 -51 177 -158
q104 -107 104 -249zM756 344l-332 274q4 0 22 3q12 2 31 2q92 0 162 -52q71 -54 98 -118q17 -32 23 -84q0 -13 -4 -25zM63 362l314 -282q-47 0 -113 16q-70 18 -133 84q-62 71 -68 182z" />
    <glyph glyph-name="Egrave" unicode="&#xc8;" horiz-adv-x="1331" 
d="M1276 1047v-1293h-139l-263 252h109v1299zM438 -246l-114 2l-283 250l119 2l714 991v-620zM461 594l-307 -424v1130l307 -270v-436z" />
    <glyph glyph-name="Eacute" unicode="&#xc9;" horiz-adv-x="1331" 
d="M1276 1047v-1293h-139l-263 252h109v1299zM438 -246l-114 2l-283 250l119 2l714 991v-620zM461 594l-307 -424v1130l307 -270v-436zM877 1649l-142 -293h-69l-134 135h86l134 272z" />
    <glyph glyph-name="Ecircumflex" unicode="&#xca;" horiz-adv-x="1167" 
d="M438 1057v-66l-278 -270v579zM438 307v-559h-110l-281 252h113v659zM559 600l643 -852h-203l-313 252h109l-529 684l604 616l189 -180z" />
    <glyph glyph-name="Edieresis" unicode="&#xcb;" horiz-adv-x="1433" 
d="M903 1057l547 -1309h-131l-318 252h113l-559 1331h4zM698 713l-372 -965h-101l-215 252h105l440 1071h4z" />
    <glyph glyph-name="Igrave" unicode="&#xcc;" horiz-adv-x="1744" 
d="M528 532l-172 -784h-96l-219 248v4h106l209 995h4zM717 1032l147 -416l-133 -372h-4l-379 1079h4zM1212 532l-229 -772l-240 215l357 1024h8zM1444 1083l280 -1335h-92l-319 248v4h106l-274 1323h4z" />
    <glyph glyph-name="Iacute" unicode="&#xcd;" horiz-adv-x="1372" 
d="M455 1028v-307h-303v579zM459 365v-617h-140l-280 252h113v621h739v-256h-432zM1294 1040v-1292h-143l-264 252h108v1300z" />
    <glyph glyph-name="Icircumflex" unicode="&#xce;" horiz-adv-x="1638" 
d="M899 1020q-139 0 -274 -78q-135 -81 -213 -217q-82 -137 -82 -301v-12q0 -111 61 -248l-4 -4q-139 44 -221 190q-84 150 -84 318q0 137 76 268q77 133 207 217q131 84 288 84q140 0 275 -78q130 -75 174 -168l-4 -4q-103 33 -199 33zM1579 461q0 -174 -84 -344
q-87 -166 -244 -267q-153 -102 -348 -102h-8q-315 0 -625 356l4 5q195 -138 408 -138q186 0 336 99q148 95 231 252q82 155 82 325q0 166 -63 283q-58 114 -125 174l4 4q185 -135 313 -297q119 -159 119 -350z" />
    <glyph glyph-name="Idieresis" unicode="&#xcf;" horiz-adv-x="1372" 
d="M459 942v-1194h-140l-280 252h113v1294h741v-352h-434zM1294 1040v-1292h-143l-264 252h108v1300z" />
    <glyph glyph-name="Eth" unicode="&#xd0;" horiz-adv-x="962" 
d="M457 680q-46 -38 -185 -47q-32 4 -106 10v565l102 -4q182 0 242 -57q62 -59 80 -174q-72 14 -133 14v-307zM926 735q0 -187 -115 -311q-118 -124 -346 -127q0 2 -4 2h-4v-551h-140l-268 248v4h117v537h33q187 0 336 67q161 69 161 336q0 104 -63 193h4q61 -36 125 -103
q62 -65 115 -153q49 -82 49 -142z" />
    <glyph glyph-name="Ntilde" unicode="&#xd1;" horiz-adv-x="1292" 
d="M889 1004h-12q-111 0 -230 -64q-127 -68 -209 -190q-82 -127 -82 -289q0 -100 19 -178q20 -80 69 -152h-8q-197 80 -270 231q-74 154 -74 275q0 188 90 328q90 132 230 204q142 68 268 68q96 0 231 -53l29 84h4l268 -248l-49 -80q-137 64 -274 64zM1276 -160
q-192 -92 -352 -92q-289 0 -588 311v9q145 -97 336 -97q193 0 360 92l-20 101h4l223 -207z" />
    <glyph glyph-name="Ograve" unicode="&#xd2;" horiz-adv-x="1085" 
d="M1030 969h-285v-1221h-131l-280 252h112v1208h373v92l211 -229v-102zM334 969h-127l-193 239h320v-239z" />
    <glyph glyph-name="Oacute" unicode="&#xd3;" horiz-adv-x="1105" 
d="M444 1092l103 -166l-121 -207l-338 586zM367 -246h-101l-225 252h115l727 1299l202 -205z" />
    <glyph glyph-name="Ocircumflex" unicode="&#xd4;" horiz-adv-x="1413" 
d="M621 399v562h98q137 0 217 -50q41 -20 72 -90q28 -70 28 -123q-50 33 -137 33v-299q-40 -32 -184 -41q-58 0 -94 8zM621 2v289h77q230 0 338 108q109 106 109 289q0 99 -68 191h6q51 -23 97 -72q51 -49 94 -107q46 -60 69 -114q29 -59 29 -101q0 -219 -131 -323
q-129 -102 -342 -105v-303h-106l-287 244v2zM621 1067v236l299 -269l-5 -8q-72 38 -161 41h-133zM504 74q-11 0 -84 26l-58 29q-6 4 -27.5 19t-35.5 24q-11 7 -20.5 14t-13.5 10t-5 3q-35 28 -110 106q-67 73 -89 144q49 -58 115 -101q63 -35 117 -47q106 -16 156 -16
q9 0 55 4v-215zM502 709q-34 -8 -62 -39q-51 -60 -51 -176v-29q1 -6 2 -19.5t2 -19.5q0 -21 2 -29q-154 0 -231 74q-41 48 -58 96q-14 46 -14 123q0 78 35 141q31 69 98 99q67 28 205 31q50 0 74 -3z" />
    <glyph glyph-name="Otilde" unicode="&#xd5;" horiz-adv-x="1298" 
d="M541 1087l65 -114l-117 -197h-8l-295 524h7zM817 604l483 -856h-172l-323 248v4h113l-377 676l360 624h8l197 -213zM645 289l-328 -541h-59l-221 248v4h100l340 571h8z" />
    <glyph glyph-name="Odieresis" unicode="&#xd6;" horiz-adv-x="1454" 
d="M459 1026v-907h-305v1179zM913 119l-2 1179l293 -262v-917h-291zM1202 119l244 -252v-113h-1141l-264 246h1161v119z" />
    <glyph glyph-name="multiply" unicode="&#xd7;" horiz-adv-x="1228" 
d="M414 1038v-432q0 -128 94 -174q-3 -4 -33 -8q-155 0 -264 106q-107 107 -107 256v514zM1169 1026v-1272h-131l-284 250h106v1294zM745 162q-18 -18 -77 -21q-146 0 -252 56q-105 54 -199 145q-71 68 -115 168q89 -102 166 -137q114 -51 217 -51q130 0 203 45q34 24 57 53
v-258z" />
    <glyph glyph-name="Oslash" unicode="&#xd8;" horiz-adv-x="1843" 
d="M1776 -246h-1471l-264 246h1444l2 1300l289 -262v-1284zM457 1026v-907h-305v1179zM1128 1028v-909h-305v1181z" />
    <glyph glyph-name="Ugrave" unicode="&#xd9;" horiz-adv-x="2048" 
d="M1778 119l243 -254v-111h-1716l-264 246h1737v119zM1487 119v1181l291 -262v-919h-291zM459 1026v-907h-305v1179zM1130 1028v-909h-305v1181z" />
    <glyph glyph-name="Uacute" unicode="&#xda;" horiz-adv-x="1372" 
d="M977 324q-57 32 -201 32h-41v-262h-268v506h252q115 0 184 -72q74 -77 74 -204zM1026 508q54 -28 127 -98q75 -72 107 -115q71 -109 71 -205q0 -160 -106 -250q-109 -86 -291 -86h-340l-236 246h326q200 0 303 80q98 76 98 264q0 35 -16 76q-11 41 -43 88zM745 1038v-331
h-278v593zM358 948h-125l-192 246h317v-246z" />
    <glyph glyph-name="Ucircumflex" unicode="&#xdb;" horiz-adv-x="1495" 
d="M426 1038v-331h-276v593zM707 508q36 -17 84 -59q41 -33 90 -82q46 -49 61 -72q72 -110 72 -205q0 -163 -109 -250q-109 -86 -289 -86h-340l-235 246h326q200 0 303 80q98 76 98 264q0 28 -16 78q-14 42 -45 86zM659 324q-57 32 -200 32h-41v-262h-271v506h254
q116 0 185 -72q73 -76 73 -204zM1432 1030v-1276h-134l-282 252h106v1299z" />
    <glyph glyph-name="Udieresis" unicode="&#xdc;" horiz-adv-x="1064" 
d="M426 1038v-331h-276v593zM707 508q36 -17 84 -59q41 -33 90 -82q46 -49 61 -72q72 -110 72 -205q0 -163 -109 -250q-109 -86 -289 -86h-340l-235 246h326q200 0 303 80q98 76 98 264q0 28 -16 78q-14 42 -45 86zM659 324q-57 32 -200 32h-41v-262h-271v506h254
q116 0 185 -72q73 -76 73 -204z" />
    <glyph glyph-name="Yacute" unicode="&#xdd;" horiz-adv-x="1433" 
d="M1008 496q-27 -138 -150 -246h-233l-273 246h656zM434 940l-264 203q130 86 293 86q129 0 276 -78q133 -74 176 -162l-4 -4q-112 33 -200 33q-136 0 -277 -78zM1393 461q0 190 -121 346q-123 154 -314 293q75 -72 127 -176q62 -121 62 -279q0 -167 -84 -326
q-87 -155 -236 -249q-148 -97 -335 -97q-216 0 -410 138q85 -180 246 -273q160 -92 379 -92q200 0 356 102q161 102 244 267q86 167 86 346z" />
    <glyph glyph-name="Thorn" unicode="&#xde;" horiz-adv-x="2109" 
d="M463 -246h-141l-281 250h113v614h307zM457 1030v-311h-305v586zM1386 1028q-140 0 -276 -80q-138 -78 -217 -215q-82 -145 -82 -299q0 -120 61 -260l-4 -4q-141 41 -221 188q-82 164 -82 316q0 126 78 264q79 140 203 215q130 86 291 86q134 0 278 -78q136 -74 176 -162
l-6 -6q-112 35 -199 35zM2066 469q0 196 -118 346q-108 138 -312 295q65 -65 123 -178q64 -122 64 -279q0 -173 -84 -323q-78 -154 -234 -250q-146 -98 -340 -98q-214 0 -409 137l-2 -4q309 -361 628 -361q207 0 357 103q156 99 243 266q84 161 84 346z" />
    <glyph glyph-name="germandbls" unicode="&#xdf;" horiz-adv-x="1044" 
d="M549 936q-16 -3 -31 -10q-3 -2 -9 -7.5t-9 -7.5q-12 -12 -15 -14q-49 -58 -49 -178q0 -22 4 -96q-154 0 -229 75q-42 42 -57 95q-15 49 -15 122q0 77 33 144q34 66 98 96q73 33 199 33q64 0 80 -2v-250zM352 399q-6 3 -26 15q-15 12 -21 12q-42 34 -106 106
q-69 75 -88 146q54 -66 114 -103q67 -39 115 -47q70 -12 109 -14zM971 1030v-1276h-133l-283 252h107v1299zM549 49l-232 -295h-59l-217 250h98l410 512v-467z" />
    <glyph glyph-name="agrave" unicode="&#xe0;" horiz-adv-x="1413" 
d="M893 1057l547 -1309h-131l-318 252h113l-559 1331h4zM680 748l-80 -228h-285l230 551h4zM924 172h-453l-156 -424h-100l-215 252h104l172 420h543z" />
    <glyph glyph-name="aacute" unicode="&#xe1;" horiz-adv-x="1044" 
d="M858 1049v-101h-434v-241h-279v501h467v90zM707 508q43 -21 84 -59q41 -33 90 -82q30 -33 61 -72q72 -110 72 -205q0 -160 -109 -250q-109 -86 -289 -86h-340l-235 246h326q199 0 303 78q98 79 98 266q0 28 -16 78q-12 36 -45 86zM672 324q-57 32 -205 32h-41v-262h-279
v506h259q121 0 190 -72q76 -79 76 -204z" />
    <glyph glyph-name="acircumflex" unicode="&#xe2;" horiz-adv-x="1064" 
d="M618 936q-72 16 -194 16v-239h-272v495h135q169 0 245 -59q80 -62 86 -213zM940 739q0 -193 -154 -282q92 -59 162 -160q68 -103 68 -209q0 -164 -105 -252q-104 -88 -293 -88h-339l-236 244h328q407 0 407 360q0 220 -219 320q156 102 156 268q0 155 -84 227l4 4
q37 -19 110 -86q74 -68 134 -157q61 -91 61 -189zM684 332q-62 33 -213 33h-43v-277h-276v520h264q118 0 192 -71q73 -73 76 -205z" />
    <glyph glyph-name="atilde" unicode="&#xe3;" horiz-adv-x="921" 
d="M453 940v-1192h-131l-273 252h125v1208h467v92l248 -256v-104h-436z" />
    <glyph glyph-name="adieresis" unicode="&#xe4;" horiz-adv-x="1433" 
d="M825 1049l322 -943h-229l-406 1215zM1225 104l200 -254v-96h-1210l-184 246h1194v104zM651 582l-174 -478h-262l311 844z" />
    <glyph glyph-name="aring" unicode="&#xe5;" horiz-adv-x="921" 
d="M606 1300l248 -260v-88h-414v-225h-278v481h444v92zM842 483v-98h-402v-293h-278v541h432v94zM625 104l247 -256v-100h-559l-268 252h580v104z" />
    <glyph glyph-name="ae" unicode="&#xe6;" horiz-adv-x="1781" 
d="M655 864v-147l-589 581l479 -325zM655 186l-348 -432h-59l-217 248h98l526 643v-459zM1147 612l657 -858h-202l-312 252h107l-525 682l603 615l186 -181zM1044 305v-551h-110l-279 246h111v651zM1044 1057v-68l-278 -272v586z" />
    <glyph glyph-name="ccedilla" unicode="&#xe7;" horiz-adv-x="1126" 
d="M733 1006q-55 0 -137 -21q-73 -18 -131 -55q-57 -35 -74 -82l-90 12l-240 232l105 -17q32 80 90 109q17 10 80 24q64 11 106 11q139 0 213 -50q27 -18 50 -65q21 -44 28 -98zM1069 752q0 -122 -55 -189q-53 -67 -117 -92q4 -4 13 -11.5l24 -20t27 -23.5q48 -37 90 -113
q34 -61 34 -160q0 -116 -51 -202q-25 -46 -65 -80q-45 -41 -72 -58q-59 -27 -129 -36q-71 -9 -180 -9q-107 0 -223 72q-184 123 -215 213q85 -61 223 -61q237 0 372 106q48 36 78 109q33 70 33 149q0 234 -207 340q187 68 187 279q0 115 -48 194q82 -54 177 -158
q104 -104 104 -249zM756 344l-332 274q4 0 22 3q12 2 31 2q95 0 162 -52q64 -49 98 -118q18 -41 23 -84q0 -13 -4 -25zM63 362l314 -282q-47 0 -113 16q-70 18 -133 84q-62 71 -68 182z" />
    <glyph glyph-name="egrave" unicode="&#xe8;" horiz-adv-x="1331" 
d="M1276 1047v-1293h-139l-263 252h109v1299zM438 -246l-114 2l-283 250l119 2l714 991v-620zM461 594l-307 -424v1130l307 -270v-436z" />
    <glyph glyph-name="eacute" unicode="&#xe9;" horiz-adv-x="1331" 
d="M1276 1047v-1293h-139l-263 252h109v1299zM438 -246l-114 2l-283 250l119 2l714 991v-620zM461 594l-307 -424v1130l307 -270v-436zM877 1649l-142 -293h-69l-134 135h86l134 272z" />
    <glyph glyph-name="ecircumflex" unicode="&#xea;" horiz-adv-x="1167" 
d="M438 1057v-66l-278 -270v579zM438 307v-559h-110l-281 252h113v659zM559 600l643 -852h-203l-313 252h109l-529 684l604 616l189 -180z" />
    <glyph glyph-name="edieresis" unicode="&#xeb;" horiz-adv-x="1433" 
d="M903 1057l547 -1309h-131l-318 252h113l-559 1331h4zM698 713l-372 -965h-101l-215 252h105l440 1071h4z" />
    <glyph glyph-name="igrave" unicode="&#xec;" horiz-adv-x="1744" 
d="M528 532l-172 -784h-96l-219 248v4h106l209 995h4zM717 1032l147 -416l-133 -372h-4l-379 1079h4zM1212 532l-229 -772l-240 215l357 1024h8zM1444 1083l280 -1335h-92l-319 248v4h106l-274 1323h4z" />
    <glyph glyph-name="iacute" unicode="&#xed;" horiz-adv-x="1372" 
d="M455 1028v-307h-303v579zM459 365v-617h-140l-280 252h113v621h739v-256h-432zM1294 1040v-1292h-143l-264 252h108v1300z" />
    <glyph glyph-name="icircumflex" unicode="&#xee;" horiz-adv-x="1638" 
d="M899 1020q-139 0 -274 -78q-135 -81 -213 -217q-82 -137 -82 -301v-12q0 -111 61 -248l-4 -4q-139 44 -221 190q-84 150 -84 318q0 137 76 268q77 133 207 217q131 84 288 84q140 0 275 -78q130 -75 174 -168l-4 -4q-103 33 -199 33zM1579 461q0 -174 -84 -344
q-87 -166 -244 -267q-153 -102 -348 -102h-8q-315 0 -625 356l4 5q195 -138 408 -138q186 0 336 99q148 95 231 252q82 155 82 325q0 166 -63 283q-58 114 -125 174l4 4q185 -135 313 -297q119 -159 119 -350z" />
    <glyph glyph-name="idieresis" unicode="&#xef;" horiz-adv-x="1372" 
d="M459 942v-1194h-140l-280 252h113v1294h741v-352h-434zM1294 1040v-1292h-143l-264 252h108v1300z" />
    <glyph glyph-name="eth" unicode="&#xf0;" horiz-adv-x="962" 
d="M457 680q-46 -38 -185 -47q-32 4 -106 10v565l102 -4q182 0 242 -57q62 -59 80 -174q-72 14 -133 14v-307zM926 735q0 -187 -115 -311q-118 -124 -346 -127q0 2 -4 2h-4v-551h-140l-268 248v4h117v537h33q187 0 336 67q161 69 161 336q0 104 -63 193h4q61 -36 125 -103
q62 -65 115 -153q49 -82 49 -142z" />
    <glyph glyph-name="ntilde" unicode="&#xf1;" horiz-adv-x="1292" 
d="M889 1004h-12q-111 0 -230 -64q-127 -68 -209 -190q-82 -127 -82 -289q0 -100 19 -178q20 -80 69 -152h-8q-197 80 -270 231q-74 154 -74 275q0 188 90 328q90 132 230 204q142 68 268 68q96 0 231 -53l29 84h4l268 -248l-49 -80q-137 64 -274 64zM1276 -160
q-192 -92 -352 -92q-289 0 -588 311v9q145 -97 336 -97q193 0 360 92l-20 101h4l223 -207z" />
    <glyph glyph-name="ograve" unicode="&#xf2;" horiz-adv-x="1085" 
d="M1030 969h-285v-1221h-131l-280 252h112v1208h373v92l211 -229v-102zM334 969h-127l-193 239h320v-239z" />
    <glyph glyph-name="oacute" unicode="&#xf3;" horiz-adv-x="1105" 
d="M444 1092l103 -166l-121 -207l-338 586zM367 -246h-101l-225 252h115l727 1299l202 -205z" />
    <glyph glyph-name="ocircumflex" unicode="&#xf4;" horiz-adv-x="1413" 
d="M621 399v562h98q137 0 217 -50q41 -20 72 -90q28 -70 28 -123q-50 33 -137 33v-299q-47 -32 -184 -41q-58 0 -94 8zM621 2v289h77q230 0 338 108q109 106 109 289q0 102 -68 191h6q51 -23 97 -72q59 -59 94 -107q46 -60 69 -114q29 -59 29 -101q0 -219 -131 -323
q-125 -99 -342 -105v-303h-106l-287 244v2zM621 1067v236l299 -269l-5 -8q-68 41 -161 41h-133zM504 74q-11 0 -84 26l-58 29q-14 8 -63 43q-33 21 -39 27q-47 37 -110 106q-68 77 -89 144q51 -60 115 -99q60 -37 117 -49q106 -16 156 -16q9 0 55 4v-215zM502 709
q-34 -8 -62 -39q-51 -60 -51 -176v-29q0 -15 4 -39q0 -6 1 -16t1 -13q-154 0 -231 74q-41 47 -55 96q-17 59 -17 123q0 73 35 141q37 72 98 99q67 28 205 31q50 0 74 -3z" />
    <glyph glyph-name="otilde" unicode="&#xf5;" horiz-adv-x="1298" 
d="M541 1087l65 -114l-117 -197h-8l-295 524h7zM817 604l483 -856h-172l-323 248v4h113l-377 676l360 624h8l197 -213zM645 289l-328 -541h-59l-221 248v4h100l340 571h8z" />
    <glyph glyph-name="odieresis" unicode="&#xf6;" horiz-adv-x="1454" 
d="M459 1026v-907h-305v1179zM913 119l-2 1179l293 -262v-917h-291zM1202 119l244 -252v-113h-1141l-264 246h1161v119z" />
    <glyph glyph-name="divide" unicode="&#xf7;" horiz-adv-x="1228" 
d="M414 1038v-432q0 -128 94 -174q-3 -4 -33 -8q-155 0 -264 106q-107 107 -107 256v514zM1169 1026v-1272h-131l-284 250h106v1294zM745 162q-15 -15 -77 -21q-146 0 -252 56q-112 60 -199 145q-71 68 -115 168q89 -99 166 -137q117 -51 217 -51q130 0 203 45q33 20 57 53
v-258z" />
    <glyph glyph-name="oslash" unicode="&#xf8;" horiz-adv-x="1843" 
d="M1776 -246h-1471l-264 246h1444l2 1300l289 -262v-1284zM457 1026v-907h-305v1179zM1128 1028v-909h-305v1181z" />
    <glyph glyph-name="ugrave" unicode="&#xf9;" horiz-adv-x="2048" 
d="M1778 119l243 -254v-111h-1716l-264 246h1737v119zM1487 119v1181l291 -262v-919h-291zM459 1026v-907h-305v1179zM1130 1028v-909h-305v1181z" />
    <glyph glyph-name="uacute" unicode="&#xfa;" horiz-adv-x="1372" 
d="M977 324q-57 32 -201 32h-41v-262h-268v506h252q115 0 184 -72q74 -77 74 -204zM1026 508q48 -22 127 -98q76 -67 107 -115q71 -109 71 -205q0 -160 -106 -250q-109 -86 -291 -86h-340l-236 246h326q199 0 303 78q98 79 98 266q0 33 -14 76q-10 32 -45 88zM745 1038v-331
h-278v593zM358 948h-125l-192 246h317v-246z" />
    <glyph glyph-name="ucircumflex" unicode="&#xfb;" horiz-adv-x="1495" 
d="M426 1038v-331h-276v593zM707 508q43 -21 84 -59q41 -33 90 -82q30 -33 61 -72q72 -110 72 -205q0 -160 -109 -250q-109 -86 -289 -86h-340l-235 246h326q199 0 303 78q98 79 98 266q0 28 -16 78q-12 36 -45 86zM659 324q-57 32 -200 32h-41v-262h-271v506h254
q116 0 185 -72q73 -76 73 -204zM1432 1030v-1276h-134l-282 252h106v1299z" />
    <glyph glyph-name="udieresis" unicode="&#xfc;" horiz-adv-x="1064" 
d="M426 1038v-331h-276v593zM707 508q43 -21 84 -59q41 -33 90 -82q30 -33 61 -72q72 -110 72 -205q0 -160 -109 -250q-109 -86 -289 -86h-340l-235 246h326q199 0 303 78q98 79 98 266q0 28 -16 78q-12 36 -45 86zM659 324q-57 32 -200 32h-41v-262h-271v506h254
q116 0 185 -72q73 -76 73 -204z" />
    <glyph glyph-name="yacute" unicode="&#xfd;" horiz-adv-x="1433" 
d="M1008 496q-26 -135 -150 -246h-233l-273 246h656zM434 940l-264 203q130 86 293 86q129 0 276 -78q133 -74 176 -162l-4 -4q-112 33 -200 33q-136 0 -277 -78zM1393 461q0 190 -121 346q-123 154 -314 293q75 -72 127 -176q62 -124 62 -279q0 -167 -84 -326
q-83 -148 -236 -249q-148 -97 -335 -97q-214 0 -410 138q85 -180 246 -273q160 -92 379 -92q197 0 356 102q161 102 244 267q86 167 86 346z" />
    <glyph glyph-name="thorn" unicode="&#xfe;" horiz-adv-x="2109" 
d="M463 -246h-141l-281 250h113v614h307zM457 1030v-311h-305v586zM1386 1028q-143 0 -276 -80q-138 -78 -217 -215q-82 -145 -82 -299q0 -120 61 -260l-4 -4q-141 41 -221 188q-82 164 -82 316q0 126 78 264q79 140 203 215q130 86 291 86q134 0 278 -78q136 -74 176 -162
l-6 -6q-112 35 -199 35zM2066 469q0 196 -118 346q-108 138 -312 295q65 -65 123 -178q64 -122 64 -279q0 -173 -84 -323q-81 -158 -234 -250q-146 -98 -340 -98q-214 0 -409 137l-2 -4q309 -361 628 -361q207 0 357 103q158 100 243 266q84 161 84 346z" />
    <glyph glyph-name="ydieresis" unicode="&#xff;" horiz-adv-x="1044" 
d="M549 936q-16 -3 -31 -10q-6 -3 -18 -15q-2 -4 -8 -8.5t-7 -5.5q-49 -58 -49 -178q0 -22 4 -96q-154 0 -229 75q-42 42 -57 95t-15 122q0 77 33 142q35 69 98 98q73 33 199 33q64 0 80 -2v-250zM352 399q-12 8 -26 15q-15 12 -21 12q-32 24 -108 106q-67 76 -86 146
q55 -68 116 -103q63 -38 113 -47q70 -12 109 -14zM971 1030v-1276h-133l-283 252h107v1299zM549 49l-232 -295h-59l-217 250h98l410 512v-467z" />
    <glyph glyph-name="Amacron" unicode="&#x100;" 
 />
    <glyph glyph-name="amacron" unicode="&#x101;" 
 />
    <glyph glyph-name="Abreve" unicode="&#x102;" 
 />
    <glyph glyph-name="abreve" unicode="&#x103;" 
 />
    <glyph glyph-name="Aogonek" unicode="&#x104;" 
 />
    <glyph glyph-name="aogonek" unicode="&#x105;" 
 />
    <glyph glyph-name="Cacute" unicode="&#x106;" 
 />
    <glyph glyph-name="cacute" unicode="&#x107;" 
 />
    <glyph glyph-name="Ccircumflex" unicode="&#x108;" 
 />
    <glyph glyph-name="ccircumflex" unicode="&#x109;" 
 />
    <glyph glyph-name="Cdotaccent" unicode="&#x10a;" 
 />
    <glyph glyph-name="cdotaccent" unicode="&#x10b;" 
 />
    <glyph glyph-name="Ccaron" unicode="&#x10c;" 
 />
    <glyph glyph-name="ccaron" unicode="&#x10d;" 
 />
    <glyph glyph-name="Dcaron" unicode="&#x10e;" 
 />
    <glyph glyph-name="dcaron" unicode="&#x10f;" 
 />
    <glyph glyph-name="Dcroat" unicode="&#x110;" 
 />
    <glyph glyph-name="dcroat" unicode="&#x111;" 
 />
    <glyph glyph-name="Emacron" unicode="&#x112;" 
 />
    <glyph glyph-name="emacron" unicode="&#x113;" 
 />
    <glyph glyph-name="Ebreve" unicode="&#x114;" 
 />
    <glyph glyph-name="ebreve" unicode="&#x115;" 
 />
    <glyph glyph-name="Edotaccent" unicode="&#x116;" 
 />
    <glyph glyph-name="edotaccent" unicode="&#x117;" 
 />
    <glyph glyph-name="Eogonek" unicode="&#x118;" 
 />
    <glyph glyph-name="eogonek" unicode="&#x119;" 
 />
    <glyph glyph-name="Ecaron" unicode="&#x11a;" 
 />
    <glyph glyph-name="ecaron" unicode="&#x11b;" 
 />
    <glyph glyph-name="Gcircumflex" unicode="&#x11c;" 
 />
    <glyph glyph-name="gcircumflex" unicode="&#x11d;" 
 />
    <glyph glyph-name="Gbreve" unicode="&#x11e;" 
 />
    <glyph glyph-name="gbreve" unicode="&#x11f;" 
 />
    <glyph glyph-name="Gdotaccent" unicode="&#x120;" 
 />
    <glyph glyph-name="gdotaccent" unicode="&#x121;" 
 />
    <glyph glyph-name="uni0122" unicode="&#x122;" 
 />
    <glyph glyph-name="uni0123" unicode="&#x123;" 
 />
    <glyph glyph-name="Hcircumflex" unicode="&#x124;" 
 />
    <glyph glyph-name="hcircumflex" unicode="&#x125;" 
 />
    <glyph glyph-name="Hbar" unicode="&#x126;" 
 />
    <glyph glyph-name="hbar" unicode="&#x127;" 
 />
    <glyph glyph-name="Itilde" unicode="&#x128;" 
 />
    <glyph glyph-name="itilde" unicode="&#x129;" 
 />
    <glyph glyph-name="Imacron" unicode="&#x12a;" 
 />
    <glyph glyph-name="imacron" unicode="&#x12b;" 
 />
    <glyph glyph-name="Ibreve" unicode="&#x12c;" 
 />
    <glyph glyph-name="ibreve" unicode="&#x12d;" 
 />
    <glyph glyph-name="Iogonek" unicode="&#x12e;" 
 />
    <glyph glyph-name="iogonek" unicode="&#x12f;" 
 />
    <glyph glyph-name="Idotaccent" unicode="&#x130;" 
 />
    <glyph glyph-name="dotlessi" unicode="&#x131;" 
 />
    <glyph glyph-name="IJ" unicode="&#x132;" 
 />
    <glyph glyph-name="ij" unicode="&#x133;" 
 />
    <glyph glyph-name="Jcircumflex" unicode="&#x134;" 
 />
    <glyph glyph-name="jcircumflex" unicode="&#x135;" 
 />
    <glyph glyph-name="uni0136" unicode="&#x136;" 
 />
    <glyph glyph-name="uni0137" unicode="&#x137;" 
 />
    <glyph glyph-name="kgreenlandic" unicode="&#x138;" 
 />
    <glyph glyph-name="Lacute" unicode="&#x139;" 
 />
    <glyph glyph-name="lacute" unicode="&#x13a;" 
 />
    <glyph glyph-name="uni013B" unicode="&#x13b;" 
 />
    <glyph glyph-name="uni013C" unicode="&#x13c;" 
 />
    <glyph glyph-name="Lcaron" unicode="&#x13d;" 
 />
    <glyph glyph-name="lcaron" unicode="&#x13e;" 
 />
    <glyph glyph-name="Ldot" unicode="&#x13f;" 
 />
    <glyph glyph-name="ldot" unicode="&#x140;" 
 />
    <glyph glyph-name="Lslash" unicode="&#x141;" 
 />
    <glyph glyph-name="lslash" unicode="&#x142;" 
 />
    <glyph glyph-name="Nacute" unicode="&#x143;" 
 />
    <glyph glyph-name="nacute" unicode="&#x144;" 
 />
    <glyph glyph-name="uni0145" unicode="&#x145;" 
 />
    <glyph glyph-name="uni0146" unicode="&#x146;" 
 />
    <glyph glyph-name="Ncaron" unicode="&#x147;" 
 />
    <glyph glyph-name="ncaron" unicode="&#x148;" 
 />
    <glyph glyph-name="napostrophe" unicode="&#x149;" 
 />
    <glyph glyph-name="Eng" unicode="&#x14a;" 
 />
    <glyph glyph-name="eng" unicode="&#x14b;" 
 />
    <glyph glyph-name="Omacron" unicode="&#x14c;" 
 />
    <glyph glyph-name="omacron" unicode="&#x14d;" 
 />
    <glyph glyph-name="Obreve" unicode="&#x14e;" 
 />
    <glyph glyph-name="obreve" unicode="&#x14f;" 
 />
    <glyph glyph-name="Ohungarumlaut" unicode="&#x150;" 
 />
    <glyph glyph-name="ohungarumlaut" unicode="&#x151;" 
 />
    <glyph glyph-name="OE" unicode="&#x152;" 
 />
    <glyph glyph-name="oe" unicode="&#x153;" 
 />
    <glyph glyph-name="Racute" unicode="&#x154;" 
 />
    <glyph glyph-name="racute" unicode="&#x155;" 
 />
    <glyph glyph-name="uni0156" unicode="&#x156;" 
 />
    <glyph glyph-name="uni0157" unicode="&#x157;" 
 />
    <glyph glyph-name="Rcaron" unicode="&#x158;" 
 />
    <glyph glyph-name="rcaron" unicode="&#x159;" 
 />
    <glyph glyph-name="Sacute" unicode="&#x15a;" 
 />
    <glyph glyph-name="sacute" unicode="&#x15b;" 
 />
    <glyph glyph-name="Scircumflex" unicode="&#x15c;" 
 />
    <glyph glyph-name="scircumflex" unicode="&#x15d;" 
 />
    <glyph glyph-name="Scedilla" unicode="&#x15e;" 
 />
    <glyph glyph-name="scedilla" unicode="&#x15f;" 
 />
    <glyph glyph-name="Scaron" unicode="&#x160;" 
 />
    <glyph glyph-name="scaron" unicode="&#x161;" 
 />
    <glyph glyph-name="uni0162" unicode="&#x162;" 
 />
    <glyph glyph-name="uni0163" unicode="&#x163;" 
 />
    <glyph glyph-name="Tcaron" unicode="&#x164;" 
 />
    <glyph glyph-name="tcaron" unicode="&#x165;" 
 />
    <glyph glyph-name="Tbar" unicode="&#x166;" 
 />
    <glyph glyph-name="tbar" unicode="&#x167;" 
 />
    <glyph glyph-name="Utilde" unicode="&#x168;" 
 />
    <glyph glyph-name="utilde" unicode="&#x169;" 
 />
    <glyph glyph-name="Umacron" unicode="&#x16a;" 
 />
    <glyph glyph-name="umacron" unicode="&#x16b;" 
 />
    <glyph glyph-name="Ubreve" unicode="&#x16c;" 
 />
    <glyph glyph-name="ubreve" unicode="&#x16d;" 
 />
    <glyph glyph-name="Uring" unicode="&#x16e;" 
 />
    <glyph glyph-name="uring" unicode="&#x16f;" 
 />
    <glyph glyph-name="Uhungarumlaut" unicode="&#x170;" 
 />
    <glyph glyph-name="uhungarumlaut" unicode="&#x171;" 
 />
    <glyph glyph-name="Uogonek" unicode="&#x172;" 
 />
    <glyph glyph-name="uogonek" unicode="&#x173;" 
 />
    <glyph glyph-name="Wcircumflex" unicode="&#x174;" 
 />
    <glyph glyph-name="wcircumflex" unicode="&#x175;" 
 />
    <glyph glyph-name="Ycircumflex" unicode="&#x176;" 
 />
    <glyph glyph-name="ycircumflex" unicode="&#x177;" 
 />
    <glyph glyph-name="Ydieresis" unicode="&#x178;" 
 />
    <glyph glyph-name="Zacute" unicode="&#x179;" 
 />
    <glyph glyph-name="zacute" unicode="&#x17a;" 
 />
    <glyph glyph-name="Zdotaccent" unicode="&#x17b;" 
 />
    <glyph glyph-name="zdotaccent" unicode="&#x17c;" 
 />
    <glyph glyph-name="Zcaron" unicode="&#x17d;" 
 />
    <glyph glyph-name="zcaron" unicode="&#x17e;" 
 />
    <glyph glyph-name="longs" unicode="&#x17f;" 
 />
    <glyph glyph-name="florin" unicode="&#x192;" horiz-adv-x="1251" 
d="M856 889l143 -146v-114h-206q-92 -540 -150 -662q-101 -235 -332 -235q-116 0 -217 59q-103 57 -141 129q67 -37 135 -37q13 0 29 4h30q97 12 162 95q66 89 101 206q39 138 63 285q7 45 26.5 168t32.5 199h261v80h-244v4q0 71 53 180q56 108 258 108h29q3 14 8 50
q0 23 6 47q11 0 96 -99q34 -39 78.5 -88.5t50.5 -56.5q-8 -27 -24 -70q-4 -10 -25 -59q-20 20 -63 35q-50 16 -84 16q-76 0 -76 -86v-12zM420 840l-33 -176l-190 176h223z" />
    <glyph glyph-name="Aringacute" unicode="&#x1fa;" 
 />
    <glyph glyph-name="aringacute" unicode="&#x1fb;" 
 />
    <glyph glyph-name="AEacute" unicode="&#x1fc;" 
 />
    <glyph glyph-name="aeacute" unicode="&#x1fd;" 
 />
    <glyph glyph-name="Oslashacute" unicode="&#x1fe;" 
 />
    <glyph glyph-name="oslashacute" unicode="&#x1ff;" 
 />
    <glyph glyph-name="circumflex" unicode="&#x2c6;" 
 />
    <glyph glyph-name="caron" unicode="&#x2c7;" 
 />
    <glyph glyph-name="uni02C9" unicode="&#x2c9;" 
 />
    <glyph glyph-name="breve" unicode="&#x2d8;" 
 />
    <glyph glyph-name="dotaccent" unicode="&#x2d9;" 
 />
    <glyph glyph-name="ring" unicode="&#x2da;" 
 />
    <glyph glyph-name="ogonek" unicode="&#x2db;" 
 />
    <glyph glyph-name="tilde" unicode="&#x2dc;" 
 />
    <glyph glyph-name="hungarumlaut" unicode="&#x2dd;" 
 />
    <glyph glyph-name="tonos" unicode="&#x384;" 
 />
    <glyph glyph-name="dieresistonos" unicode="&#x385;" 
 />
    <glyph glyph-name="Alphatonos" unicode="&#x386;" 
 />
    <glyph glyph-name="anoteleia" unicode="&#x387;" 
 />
    <glyph glyph-name="Epsilontonos" unicode="&#x388;" 
 />
    <glyph glyph-name="Etatonos" unicode="&#x389;" 
 />
    <glyph glyph-name="Iotatonos" unicode="&#x38a;" 
 />
    <glyph glyph-name="Omicrontonos" unicode="&#x38c;" 
 />
    <glyph glyph-name="Upsilontonos" unicode="&#x38e;" 
 />
    <glyph glyph-name="Omegatonos" unicode="&#x38f;" 
 />
    <glyph glyph-name="iotadieresistonos" unicode="&#x390;" 
 />
    <glyph glyph-name="Alpha" unicode="&#x391;" 
 />
    <glyph glyph-name="Beta" unicode="&#x392;" 
 />
    <glyph glyph-name="Gamma" unicode="&#x393;" 
 />
    <glyph glyph-name="uni0394" unicode="&#x394;" 
 />
    <glyph glyph-name="Epsilon" unicode="&#x395;" 
 />
    <glyph glyph-name="Zeta" unicode="&#x396;" 
 />
    <glyph glyph-name="Eta" unicode="&#x397;" 
 />
    <glyph glyph-name="Theta" unicode="&#x398;" 
 />
    <glyph glyph-name="Iota" unicode="&#x399;" 
 />
    <glyph glyph-name="Kappa" unicode="&#x39a;" 
 />
    <glyph glyph-name="Lambda" unicode="&#x39b;" 
 />
    <glyph glyph-name="Mu" unicode="&#x39c;" 
 />
    <glyph glyph-name="Nu" unicode="&#x39d;" 
 />
    <glyph glyph-name="Xi" unicode="&#x39e;" 
 />
    <glyph glyph-name="Omicron" unicode="&#x39f;" 
 />
    <glyph glyph-name="Pi" unicode="&#x3a0;" 
 />
    <glyph glyph-name="Rho" unicode="&#x3a1;" 
 />
    <glyph glyph-name="Sigma" unicode="&#x3a3;" 
 />
    <glyph glyph-name="Tau" unicode="&#x3a4;" 
 />
    <glyph glyph-name="Upsilon" unicode="&#x3a5;" 
 />
    <glyph glyph-name="Phi" unicode="&#x3a6;" 
 />
    <glyph glyph-name="Chi" unicode="&#x3a7;" 
 />
    <glyph glyph-name="Psi" unicode="&#x3a8;" 
 />
    <glyph glyph-name="uni03A9" unicode="&#x3a9;" 
 />
    <glyph glyph-name="Iotadieresis" unicode="&#x3aa;" 
 />
    <glyph glyph-name="Upsilondieresis" unicode="&#x3ab;" 
 />
    <glyph glyph-name="alphatonos" unicode="&#x3ac;" 
 />
    <glyph glyph-name="epsilontonos" unicode="&#x3ad;" 
 />
    <glyph glyph-name="etatonos" unicode="&#x3ae;" 
 />
    <glyph glyph-name="iotatonos" unicode="&#x3af;" 
 />
    <glyph glyph-name="upsilondieresistonos" unicode="&#x3b0;" 
 />
    <glyph glyph-name="alpha" unicode="&#x3b1;" 
 />
    <glyph glyph-name="beta" unicode="&#x3b2;" 
 />
    <glyph glyph-name="gamma" unicode="&#x3b3;" 
 />
    <glyph glyph-name="delta" unicode="&#x3b4;" 
 />
    <glyph glyph-name="epsilon" unicode="&#x3b5;" 
 />
    <glyph glyph-name="zeta" unicode="&#x3b6;" 
 />
    <glyph glyph-name="eta" unicode="&#x3b7;" 
 />
    <glyph glyph-name="theta" unicode="&#x3b8;" 
 />
    <glyph glyph-name="iota" unicode="&#x3b9;" 
 />
    <glyph glyph-name="kappa" unicode="&#x3ba;" 
 />
    <glyph glyph-name="lambda" unicode="&#x3bb;" 
 />
    <glyph glyph-name="uni03BC" unicode="&#x3bc;" 
 />
    <glyph glyph-name="nu" unicode="&#x3bd;" 
 />
    <glyph glyph-name="xi" unicode="&#x3be;" 
 />
    <glyph glyph-name="omicron" unicode="&#x3bf;" 
 />
    <glyph glyph-name="pi" unicode="&#x3c0;" 
 />
    <glyph glyph-name="rho" unicode="&#x3c1;" 
 />
    <glyph glyph-name="sigma1" unicode="&#x3c2;" 
 />
    <glyph glyph-name="sigma" unicode="&#x3c3;" 
 />
    <glyph glyph-name="tau" unicode="&#x3c4;" 
 />
    <glyph glyph-name="upsilon" unicode="&#x3c5;" 
 />
    <glyph glyph-name="phi" unicode="&#x3c6;" 
 />
    <glyph glyph-name="chi" unicode="&#x3c7;" 
 />
    <glyph glyph-name="psi" unicode="&#x3c8;" 
 />
    <glyph glyph-name="omega" unicode="&#x3c9;" 
 />
    <glyph glyph-name="iotadieresis" unicode="&#x3ca;" 
 />
    <glyph glyph-name="upsilondieresis" unicode="&#x3cb;" 
 />
    <glyph glyph-name="omicrontonos" unicode="&#x3cc;" 
 />
    <glyph glyph-name="upsilontonos" unicode="&#x3cd;" 
 />
    <glyph glyph-name="omegatonos" unicode="&#x3ce;" 
 />
    <glyph glyph-name="uni0401" unicode="&#x401;" horiz-adv-x="921" 
d="M606 1300l248 -260v-88h-414v-225h-278v481h444v92zM842 483v-98h-402v-293h-278v541h432v94zM625 104l247 -256v-100h-559l-268 252h580v104zM137 1520v225l164 -166v-227h-72l-159 168h67zM522 1524v227l168 -168v-231h-80l-172 172h84z" />
    <glyph glyph-name="uni0402" unicode="&#x402;" 
 />
    <glyph glyph-name="uni0403" unicode="&#x403;" 
 />
    <glyph glyph-name="uni0404" unicode="&#x404;" 
 />
    <glyph glyph-name="uni0405" unicode="&#x405;" 
 />
    <glyph glyph-name="uni0406" unicode="&#x406;" 
 />
    <glyph glyph-name="uni0407" unicode="&#x407;" 
 />
    <glyph glyph-name="uni0408" unicode="&#x408;" 
 />
    <glyph glyph-name="uni0409" unicode="&#x409;" 
 />
    <glyph glyph-name="uni040A" unicode="&#x40a;" 
 />
    <glyph glyph-name="uni040B" unicode="&#x40b;" 
 />
    <glyph glyph-name="uni040C" unicode="&#x40c;" 
 />
    <glyph glyph-name="uni040E" unicode="&#x40e;" 
 />
    <glyph glyph-name="uni040F" unicode="&#x40f;" 
 />
    <glyph glyph-name="uni0410" unicode="&#x410;" horiz-adv-x="1413" 
d="M893 1057l547 -1309h-131l-318 252h113l-559 1331h4zM680 748l-80 -228h-285l230 551h4zM924 172h-453l-156 -424h-100l-215 252h104l172 420h543z" />
    <glyph glyph-name="uni0411" unicode="&#x411;" horiz-adv-x="1044" 
d="M858 1049v-101h-434v-241h-279v501h467v90zM707 508q36 -17 84 -59q41 -33 90 -82q46 -49 61 -72q72 -110 72 -205q0 -163 -109 -250q-109 -86 -289 -86h-340l-235 246h326q200 0 303 80q98 76 98 264q0 28 -16 78q-14 42 -45 86zM672 324q-57 32 -205 32h-41v-262h-279
v506h259q121 0 190 -72q76 -79 76 -204z" />
    <glyph glyph-name="uni0412" unicode="&#x412;" horiz-adv-x="1064" 
d="M618 936q-72 16 -194 16v-239h-272v495h135q169 0 245 -59q80 -62 86 -213zM940 739q0 -193 -154 -282q92 -59 162 -160q68 -103 68 -209q0 -164 -105 -252q-104 -88 -293 -88h-339l-236 244h328q407 0 407 360q0 220 -219 320q156 102 156 268q0 155 -84 227l4 4
q37 -19 110 -86q74 -68 134 -157q61 -91 61 -189zM684 332q-62 33 -213 33h-43v-277h-276v520h264q118 0 192 -71q73 -73 76 -205z" />
    <glyph glyph-name="uni0413" unicode="&#x413;" horiz-adv-x="921" 
d="M453 940v-1192h-131l-273 252h125v1208h467v92l248 -256v-104h-436z" />
    <glyph glyph-name="uni0414" unicode="&#x414;" horiz-adv-x="1433" 
d="M825 1049l322 -943h-229l-406 1215zM1225 104l200 -254v-96h-1210l-184 246h1194v104zM651 582l-174 -478h-262l311 844z" />
    <glyph glyph-name="uni0415" unicode="&#x415;" horiz-adv-x="921" 
d="M606 1300l248 -260v-88h-414v-225h-278v481h444v92zM842 483v-98h-402v-293h-278v541h432v94zM625 104l247 -256v-100h-559l-268 252h580v104z" />
    <glyph glyph-name="uni0416" unicode="&#x416;" horiz-adv-x="1781" 
d="M655 864v-147l-589 581l479 -325zM655 186l-348 -432h-59l-217 248h98l526 643v-459zM1147 612l657 -858h-202l-312 252h107l-525 682l603 615l186 -181zM1044 305v-551h-110l-279 246h111v651zM1044 1057v-68l-278 -272v586z" />
    <glyph glyph-name="uni0417" unicode="&#x417;" horiz-adv-x="1126" 
d="M733 1006q-67 0 -137 -21q-70 -17 -131 -53q-58 -39 -74 -84l-90 12l-240 232l105 -17q32 80 90 109q17 10 80 24q64 11 106 11q139 0 213 -50q26 -17 52 -65q23 -47 26 -98zM1069 752q0 -122 -55 -189q-61 -70 -117 -92q4 -4 13 -11.5l24 -20t27 -23.5q48 -37 90 -113
q34 -61 34 -160q0 -116 -51 -202q-24 -44 -63 -80q-51 -44 -74 -58q-61 -27 -129 -36q-71 -9 -180 -9q-107 0 -223 72q-186 124 -215 213q85 -61 223 -61q237 0 372 106q50 40 78 109q33 70 33 149q0 237 -207 340q187 71 187 279q0 115 -48 194q79 -51 177 -158
q104 -107 104 -249zM756 344l-332 274q4 0 22 3q12 2 31 2q92 0 162 -52q71 -54 98 -118q17 -32 23 -84q0 -13 -4 -25zM63 362l314 -282q-47 0 -113 16q-70 18 -133 84q-62 71 -68 182z" />
    <glyph glyph-name="uni0418" unicode="&#x418;" horiz-adv-x="1331" 
d="M1276 1047v-1293h-139l-263 252h109v1299zM438 -246l-114 2l-283 250l119 2l714 991v-620zM461 594l-307 -424v1130l307 -270v-436z" />
    <glyph glyph-name="uni0419" unicode="&#x419;" horiz-adv-x="1331" 
d="M1276 1047v-1293h-139l-263 252h109v1299zM438 -246l-114 2l-283 250l119 2l714 991v-620zM461 594l-307 -424v1130l307 -270v-436zM877 1649l-142 -293h-69l-134 135h86l134 272z" />
    <glyph glyph-name="uni041A" unicode="&#x41a;" horiz-adv-x="1167" 
d="M438 1057v-66l-278 -270v579zM438 307v-559h-110l-281 252h113v659zM559 600l643 -852h-203l-313 252h109l-529 684l604 616l189 -180z" />
    <glyph glyph-name="uni041B" unicode="&#x41b;" horiz-adv-x="1433" 
d="M903 1057l547 -1309h-131l-318 252h113l-559 1331h4zM698 713l-372 -965h-101l-215 252h105l440 1071h4z" />
    <glyph glyph-name="uni041C" unicode="&#x41c;" horiz-adv-x="1744" 
d="M528 532l-172 -784h-96l-219 248v4h106l209 995h4zM717 1032l147 -416l-133 -372h-4l-379 1079h4zM1212 532l-229 -772l-240 215l357 1024h8zM1444 1083l280 -1335h-92l-319 248v4h106l-274 1323h4z" />
    <glyph glyph-name="uni041D" unicode="&#x41d;" horiz-adv-x="1372" 
d="M455 1028v-307h-303v579zM459 365v-617h-140l-280 252h113v621h739v-256h-432zM1294 1040v-1292h-143l-264 252h108v1300z" />
    <glyph glyph-name="uni041E" unicode="&#x41e;" horiz-adv-x="1638" 
d="M899 1020q-139 0 -274 -78q-135 -81 -213 -217q-82 -137 -82 -301v-12q0 -111 61 -248l-4 -4q-139 44 -221 190q-84 150 -84 318q0 137 76 268q77 133 207 217q131 84 288 84q140 0 275 -78q130 -75 174 -168l-4 -4q-103 33 -199 33zM1579 461q0 -174 -84 -344
q-87 -166 -244 -267q-153 -102 -348 -102h-8q-315 0 -625 356l4 5q195 -138 408 -138q186 0 336 99q148 95 231 252q82 155 82 325q0 166 -63 283q-58 114 -125 174l4 4q185 -135 313 -297q119 -159 119 -350z" />
    <glyph glyph-name="uni041F" unicode="&#x41f;" horiz-adv-x="1372" 
d="M459 942v-1194h-140l-280 252h113v1294h741v-352h-434zM1294 1040v-1292h-143l-264 252h108v1300z" />
    <glyph glyph-name="uni0420" unicode="&#x420;" horiz-adv-x="962" 
d="M457 680q-46 -38 -185 -47q-32 4 -106 10v565l102 -4q182 0 242 -57q62 -59 80 -174q-72 14 -133 14v-307zM926 735q0 -187 -115 -311q-118 -124 -346 -127q0 2 -4 2h-4v-551h-140l-268 248v4h117v537h33q187 0 336 67q161 69 161 336q0 104 -63 193h4q61 -36 125 -103
q62 -65 115 -153q49 -82 49 -142z" />
    <glyph glyph-name="uni0421" unicode="&#x421;" horiz-adv-x="1292" 
d="M889 1004h-12q-111 0 -230 -64q-127 -68 -209 -190q-82 -127 -82 -289q0 -100 19 -178q20 -80 69 -152h-8q-197 80 -270 231q-74 154 -74 275q0 188 90 328q90 132 230 204q142 68 268 68q96 0 231 -53l29 84h4l268 -248l-49 -80q-137 64 -274 64zM1276 -160
q-192 -92 -352 -92q-289 0 -588 311v9q145 -97 336 -97q193 0 360 92l-20 101h4l223 -207z" />
    <glyph glyph-name="uni0422" unicode="&#x422;" horiz-adv-x="1085" 
d="M1030 969h-285v-1221h-131l-280 252h112v1208h373v92l211 -229v-102zM334 969h-127l-193 239h320v-239z" />
    <glyph glyph-name="uni0423" unicode="&#x423;" horiz-adv-x="1105" 
d="M444 1092l103 -166l-121 -207l-338 586zM367 -246h-101l-225 252h115l727 1299l202 -205z" />
    <glyph glyph-name="uni0424" unicode="&#x424;" horiz-adv-x="1413" 
d="M621 399v562h98q137 0 217 -50q41 -20 72 -90q28 -70 28 -123q-50 33 -137 33v-299q-40 -32 -184 -41q-58 0 -94 8zM621 2v289h77q230 0 338 108q109 106 109 289q0 99 -68 191h6q51 -23 97 -72q51 -49 94 -107q46 -60 69 -114q29 -59 29 -101q0 -219 -131 -323
q-129 -102 -342 -105v-303h-106l-287 244v2zM621 1067v236l299 -269l-5 -8q-72 38 -161 41h-133zM504 74q-11 0 -84 26l-58 29q-6 4 -27.5 19t-35.5 24q-11 7 -20.5 14t-13.5 10t-5 3q-35 28 -110 106q-67 73 -89 144q49 -58 115 -101q63 -35 117 -47q106 -16 156 -16
q9 0 55 4v-215zM502 709q-34 -8 -62 -39q-51 -60 -51 -176v-29q1 -6 2 -19.5t2 -19.5q0 -21 2 -29q-154 0 -231 74q-41 48 -58 96q-14 46 -14 123q0 78 35 141q31 69 98 99q67 28 205 31q50 0 74 -3z" />
    <glyph glyph-name="uni0425" unicode="&#x425;" horiz-adv-x="1298" 
d="M541 1087l65 -114l-117 -197h-8l-295 524h7zM817 604l483 -856h-172l-323 248v4h113l-377 676l360 624h8l197 -213zM645 289l-328 -541h-59l-221 248v4h100l340 571h8z" />
    <glyph glyph-name="uni0426" unicode="&#x426;" horiz-adv-x="1454" 
d="M459 1026v-907h-305v1179zM913 119l-2 1179l293 -262v-917h-291zM1202 119l244 -252v-113h-1141l-264 246h1161v119z" />
    <glyph glyph-name="uni0427" unicode="&#x427;" horiz-adv-x="1228" 
d="M414 1038v-432q0 -128 94 -174q-3 -4 -33 -8q-155 0 -264 106q-107 107 -107 256v514zM1169 1026v-1272h-131l-284 250h106v1294zM745 162q-18 -18 -77 -21q-146 0 -252 56q-105 54 -199 145q-71 68 -115 168q89 -102 166 -137q114 -51 217 -51q130 0 203 45q34 24 57 53
v-258z" />
    <glyph glyph-name="uni0428" unicode="&#x428;" horiz-adv-x="1843" 
d="M1776 -246h-1471l-264 246h1444l2 1300l289 -262v-1284zM457 1026v-907h-305v1179zM1128 1028v-909h-305v1181z" />
    <glyph glyph-name="uni0429" unicode="&#x429;" horiz-adv-x="2048" 
d="M1778 119l243 -254v-111h-1716l-264 246h1737v119zM1487 119v1181l291 -262v-919h-291zM459 1026v-907h-305v1179zM1130 1028v-909h-305v1181z" />
    <glyph glyph-name="uni042A" unicode="&#x42a;" horiz-adv-x="1372" 
d="M977 324q-57 32 -201 32h-41v-262h-268v506h252q115 0 184 -72q74 -77 74 -204zM1026 508q54 -28 127 -98q75 -72 107 -115q71 -109 71 -205q0 -160 -106 -250q-109 -86 -291 -86h-340l-236 246h326q200 0 303 80q98 76 98 264q0 35 -16 76q-11 41 -43 88zM745 1038v-331
h-278v593zM358 948h-125l-192 246h317v-246z" />
    <glyph glyph-name="uni042B" unicode="&#x42b;" horiz-adv-x="1495" 
d="M426 1038v-331h-276v593zM707 508q36 -17 84 -59q41 -33 90 -82q46 -49 61 -72q72 -110 72 -205q0 -163 -109 -250q-109 -86 -289 -86h-340l-235 246h326q200 0 303 80q98 76 98 264q0 28 -16 78q-14 42 -45 86zM659 324q-57 32 -200 32h-41v-262h-271v506h254
q116 0 185 -72q73 -76 73 -204zM1432 1030v-1276h-134l-282 252h106v1299z" />
    <glyph glyph-name="uni042C" unicode="&#x42c;" horiz-adv-x="1064" 
d="M426 1038v-331h-276v593zM707 508q36 -17 84 -59q41 -33 90 -82q46 -49 61 -72q72 -110 72 -205q0 -163 -109 -250q-109 -86 -289 -86h-340l-235 246h326q200 0 303 80q98 76 98 264q0 28 -16 78q-14 42 -45 86zM659 324q-57 32 -200 32h-41v-262h-271v506h254
q116 0 185 -72q73 -76 73 -204z" />
    <glyph glyph-name="uni042D" unicode="&#x42d;" horiz-adv-x="1433" 
d="M1008 496q-27 -138 -150 -246h-233l-273 246h656zM434 940l-264 203q130 86 293 86q129 0 276 -78q133 -74 176 -162l-4 -4q-112 33 -200 33q-136 0 -277 -78zM1393 461q0 190 -121 346q-123 154 -314 293q75 -72 127 -176q62 -121 62 -279q0 -167 -84 -326
q-87 -155 -236 -249q-148 -97 -335 -97q-216 0 -410 138q85 -180 246 -273q160 -92 379 -92q200 0 356 102q161 102 244 267q86 167 86 346z" />
    <glyph glyph-name="uni042E" unicode="&#x42e;" horiz-adv-x="2109" 
d="M463 -246h-141l-281 250h113v614h307zM457 1030v-311h-305v586zM1386 1028q-140 0 -276 -80q-138 -78 -217 -215q-82 -145 -82 -299q0 -120 61 -260l-4 -4q-141 41 -221 188q-82 164 -82 316q0 126 78 264q79 140 203 215q130 86 291 86q134 0 278 -78q136 -74 176 -162
l-6 -6q-112 35 -199 35zM2066 469q0 196 -118 346q-108 138 -312 295q65 -65 123 -178q64 -122 64 -279q0 -173 -84 -323q-78 -154 -234 -250q-146 -98 -340 -98q-214 0 -409 137l-2 -4q309 -361 628 -361q207 0 357 103q156 99 243 266q84 161 84 346z" />
    <glyph glyph-name="uni042F" unicode="&#x42f;" horiz-adv-x="1044" 
d="M549 936q-16 -3 -31 -10q-3 -2 -9 -7.5t-9 -7.5q-12 -12 -15 -14q-49 -58 -49 -178q0 -22 4 -96q-154 0 -229 75q-42 42 -57 95q-15 49 -15 122q0 77 33 144q34 66 98 96q73 33 199 33q64 0 80 -2v-250zM352 399q-6 3 -26 15q-15 12 -21 12q-42 34 -106 106
q-69 75 -88 146q54 -66 114 -103q67 -39 115 -47q70 -12 109 -14zM971 1030v-1276h-133l-283 252h107v1299zM549 49l-232 -295h-59l-217 250h98l410 512v-467z" />
    <glyph glyph-name="uni0430" unicode="&#x430;" horiz-adv-x="1413" 
d="M893 1057l547 -1309h-131l-318 252h113l-559 1331h4zM680 748l-80 -228h-285l230 551h4zM924 172h-453l-156 -424h-100l-215 252h104l172 420h543z" />
    <glyph glyph-name="uni0431" unicode="&#x431;" horiz-adv-x="1044" 
d="M858 1049v-101h-434v-241h-279v501h467v90zM707 508q36 -17 84 -59q41 -33 90 -82q46 -49 61 -72q72 -110 72 -205q0 -163 -109 -250q-109 -86 -289 -86h-340l-235 246h326q200 0 303 80q98 76 98 264q0 28 -16 78q-14 42 -45 86zM672 324q-57 32 -205 32h-41v-262h-279
v506h259q121 0 190 -72q76 -79 76 -204z" />
    <glyph glyph-name="uni0432" unicode="&#x432;" horiz-adv-x="1064" 
d="M618 936q-72 16 -194 16v-239h-272v495h135q169 0 245 -59q80 -62 86 -213zM940 739q0 -193 -154 -282q92 -59 162 -160q68 -103 68 -209q0 -164 -105 -252q-104 -88 -293 -88h-339l-236 244h328q407 0 407 360q0 220 -219 320q156 102 156 268q0 155 -84 227l4 4
q37 -19 110 -86q74 -68 134 -157q61 -91 61 -189zM684 332q-62 33 -213 33h-43v-277h-276v520h264q118 0 192 -71q73 -73 76 -205z" />
    <glyph glyph-name="uni0433" unicode="&#x433;" horiz-adv-x="921" 
d="M453 940v-1192h-131l-273 252h125v1208h467v92l248 -256v-104h-436z" />
    <glyph glyph-name="uni0434" unicode="&#x434;" horiz-adv-x="1433" 
d="M825 1049l322 -943h-229l-406 1215zM1225 104l200 -254v-96h-1210l-184 246h1194v104zM651 582l-174 -478h-262l311 844z" />
    <glyph glyph-name="uni0435" unicode="&#x435;" horiz-adv-x="921" 
d="M606 1300l248 -260v-88h-414v-225h-278v481h444v92zM842 483v-98h-402v-293h-278v541h432v94zM625 104l247 -256v-100h-559l-268 252h580v104z" />
    <glyph glyph-name="uni0436" unicode="&#x436;" horiz-adv-x="1781" 
d="M655 864v-147l-589 581l479 -325zM655 186l-348 -432h-59l-217 248h98l526 643v-459zM1147 612l657 -858h-202l-312 252h107l-525 682l603 615l186 -181zM1044 305v-551h-110l-279 246h111v651zM1044 1057v-68l-278 -272v586z" />
    <glyph glyph-name="uni0437" unicode="&#x437;" horiz-adv-x="1126" 
d="M733 1006q-67 0 -137 -21q-70 -17 -131 -53q-58 -39 -74 -84l-90 12l-240 232l105 -17q32 80 90 109q17 10 80 24q64 11 106 11q139 0 213 -50q26 -17 52 -65q23 -47 26 -98zM1069 752q0 -122 -55 -189q-61 -70 -117 -92q4 -4 13 -11.5l24 -20t27 -23.5q48 -37 90 -113
q34 -61 34 -160q0 -116 -51 -202q-24 -44 -63 -80q-51 -44 -74 -58q-61 -27 -129 -36q-71 -9 -180 -9q-107 0 -223 72q-186 124 -215 213q85 -61 223 -61q237 0 372 106q50 40 78 109q33 70 33 149q0 237 -207 340q187 71 187 279q0 115 -48 194q79 -51 177 -158
q104 -107 104 -249zM756 344l-332 274q4 0 22 3q12 2 31 2q92 0 162 -52q71 -54 98 -118q17 -32 23 -84q0 -13 -4 -25zM63 362l314 -282q-47 0 -113 16q-70 18 -133 84q-62 71 -68 182z" />
    <glyph glyph-name="uni0438" unicode="&#x438;" horiz-adv-x="1331" 
d="M1276 1047v-1293h-139l-263 252h109v1299zM438 -246l-114 2l-283 250l119 2l714 991v-620zM461 594l-307 -424v1130l307 -270v-436z" />
    <glyph glyph-name="uni0439" unicode="&#x439;" horiz-adv-x="1331" 
d="M1276 1047v-1293h-139l-263 252h109v1299zM438 -246l-114 2l-283 250l119 2l714 991v-620zM461 594l-307 -424v1130l307 -270v-436zM877 1649l-142 -293h-69l-134 135h86l134 272z" />
    <glyph glyph-name="uni043A" unicode="&#x43a;" horiz-adv-x="1167" 
d="M438 1057v-66l-278 -270v579zM438 307v-559h-110l-281 252h113v659zM559 600l643 -852h-203l-313 252h109l-529 684l604 616l189 -180z" />
    <glyph glyph-name="uni043B" unicode="&#x43b;" horiz-adv-x="1433" 
d="M903 1057l547 -1309h-131l-318 252h113l-559 1331h4zM698 713l-372 -965h-101l-215 252h105l440 1071h4z" />
    <glyph glyph-name="uni043C" unicode="&#x43c;" horiz-adv-x="1744" 
d="M528 532l-172 -784h-96l-219 248v4h106l209 995h4zM717 1032l147 -416l-133 -372h-4l-379 1079h4zM1212 532l-229 -772l-240 215l357 1024h8zM1444 1083l280 -1335h-92l-319 248v4h106l-274 1323h4z" />
    <glyph glyph-name="uni043D" unicode="&#x43d;" horiz-adv-x="1372" 
d="M455 1028v-307h-303v579zM459 365v-617h-140l-280 252h113v621h739v-256h-432zM1294 1040v-1292h-143l-264 252h108v1300z" />
    <glyph glyph-name="uni043E" unicode="&#x43e;" horiz-adv-x="1638" 
d="M899 1020q-139 0 -274 -78q-135 -81 -213 -217q-82 -137 -82 -301v-12q0 -111 61 -248l-4 -4q-139 44 -221 190q-84 150 -84 318q0 137 76 268q77 133 207 217q131 84 288 84q140 0 275 -78q130 -75 174 -168l-4 -4q-103 33 -199 33zM1579 461q0 -174 -84 -344
q-87 -166 -244 -267q-153 -102 -348 -102h-8q-315 0 -625 356l4 5q195 -138 408 -138q186 0 336 99q148 95 231 252q82 155 82 325q0 166 -63 283q-58 114 -125 174l4 4q185 -135 313 -297q119 -159 119 -350z" />
    <glyph glyph-name="uni043F" unicode="&#x43f;" horiz-adv-x="1372" 
d="M459 942v-1194h-140l-280 252h113v1294h741v-352h-434zM1294 1040v-1292h-143l-264 252h108v1300z" />
    <glyph glyph-name="uni0440" unicode="&#x440;" horiz-adv-x="962" 
d="M457 680q-46 -38 -185 -47q-32 4 -106 10v565l102 -4q182 0 242 -57q62 -59 80 -174q-72 14 -133 14v-307zM926 735q0 -187 -115 -311q-118 -124 -346 -127q0 2 -4 2h-4v-551h-140l-268 248v4h117v537h33q187 0 336 67q161 69 161 336q0 104 -63 193h4q61 -36 125 -103
q62 -65 115 -153q49 -82 49 -142z" />
    <glyph glyph-name="uni0441" unicode="&#x441;" horiz-adv-x="1292" 
d="M889 1004h-12q-111 0 -230 -64q-127 -68 -209 -190q-82 -127 -82 -289q0 -100 19 -178q20 -80 69 -152h-8q-197 80 -270 231q-74 154 -74 275q0 188 90 328q90 132 230 204q142 68 268 68q96 0 231 -53l29 84h4l268 -248l-49 -80q-137 64 -274 64zM1276 -160
q-192 -92 -352 -92q-289 0 -588 311v9q145 -97 336 -97q193 0 360 92l-20 101h4l223 -207z" />
    <glyph glyph-name="uni0442" unicode="&#x442;" horiz-adv-x="1085" 
d="M1030 969h-285v-1221h-131l-280 252h112v1208h373v92l211 -229v-102zM334 969h-127l-193 239h320v-239z" />
    <glyph glyph-name="uni0443" unicode="&#x443;" horiz-adv-x="1105" 
d="M444 1092l103 -166l-121 -207l-338 586zM367 -246h-101l-225 252h115l727 1299l202 -205z" />
    <glyph glyph-name="uni0444" unicode="&#x444;" horiz-adv-x="1413" 
d="M621 399v562h98q137 0 217 -50q41 -20 72 -90q28 -70 28 -123q-50 33 -137 33v-299q-40 -32 -184 -41q-58 0 -94 8zM621 2v289h77q230 0 338 108q109 106 109 289q0 99 -68 191h6q51 -23 97 -72q51 -49 94 -107q46 -60 69 -114q29 -59 29 -101q0 -219 -131 -323
q-129 -102 -342 -105v-303h-106l-287 244v2zM621 1067v236l299 -269l-5 -8q-72 38 -161 41h-133zM504 74q-11 0 -84 26l-58 29q-6 4 -27.5 19t-35.5 24q-11 7 -20.5 14t-13.5 10t-5 3q-35 28 -110 106q-67 73 -89 144q49 -58 115 -101q63 -35 117 -47q106 -16 156 -16
q9 0 55 4v-215zM502 709q-34 -8 -62 -39q-51 -60 -51 -176v-29q1 -6 2 -19.5t2 -19.5q0 -21 2 -29q-154 0 -231 74q-41 48 -58 96q-14 46 -14 123q0 78 35 141q31 69 98 99q67 28 205 31q50 0 74 -3z" />
    <glyph glyph-name="uni0445" unicode="&#x445;" horiz-adv-x="1298" 
d="M541 1087l65 -114l-117 -197h-8l-295 524h7zM817 604l483 -856h-172l-323 248v4h113l-377 676l360 624h8l197 -213zM645 289l-328 -541h-59l-221 248v4h100l340 571h8z" />
    <glyph glyph-name="uni0446" unicode="&#x446;" horiz-adv-x="1454" 
d="M459 1026v-907h-305v1179zM913 119l-2 1179l293 -262v-917h-291zM1202 119l244 -252v-113h-1141l-264 246h1161v119z" />
    <glyph glyph-name="uni0447" unicode="&#x447;" horiz-adv-x="1228" 
d="M414 1038v-432q0 -128 94 -174q-3 -4 -33 -8q-155 0 -264 106q-107 107 -107 256v514zM1169 1026v-1272h-131l-284 250h106v1294zM745 162q-18 -18 -77 -21q-146 0 -252 56q-105 54 -199 145q-71 68 -115 168q89 -102 166 -137q114 -51 217 -51q130 0 203 45q34 24 57 53
v-258z" />
    <glyph glyph-name="uni0448" unicode="&#x448;" horiz-adv-x="1843" 
d="M1776 -246h-1471l-264 246h1444l2 1300l289 -262v-1284zM457 1026v-907h-305v1179zM1128 1028v-909h-305v1181z" />
    <glyph glyph-name="uni0449" unicode="&#x449;" horiz-adv-x="2048" 
d="M1778 119l243 -254v-111h-1716l-264 246h1737v119zM1487 119v1181l291 -262v-919h-291zM459 1026v-907h-305v1179zM1130 1028v-909h-305v1181z" />
    <glyph glyph-name="uni044A" unicode="&#x44a;" horiz-adv-x="1372" 
d="M977 324q-57 32 -201 32h-41v-262h-268v506h252q115 0 184 -72q74 -77 74 -204zM1026 508q54 -28 127 -98q75 -72 107 -115q71 -109 71 -205q0 -160 -106 -250q-109 -86 -291 -86h-340l-236 246h326q200 0 303 80q98 76 98 264q0 35 -16 76q-11 41 -43 88zM745 1038v-331
h-278v593zM358 948h-125l-192 246h317v-246z" />
    <glyph glyph-name="uni044B" unicode="&#x44b;" horiz-adv-x="1495" 
d="M426 1038v-331h-276v593zM707 508q36 -17 84 -59q41 -33 90 -82q46 -49 61 -72q72 -110 72 -205q0 -163 -109 -250q-109 -86 -289 -86h-340l-235 246h326q200 0 303 80q98 76 98 264q0 28 -16 78q-14 42 -45 86zM659 324q-57 32 -200 32h-41v-262h-271v506h254
q116 0 185 -72q73 -76 73 -204zM1432 1030v-1276h-134l-282 252h106v1299z" />
    <glyph glyph-name="uni044C" unicode="&#x44c;" horiz-adv-x="1064" 
d="M426 1038v-331h-276v593zM707 508q36 -17 84 -59q41 -33 90 -82q46 -49 61 -72q72 -110 72 -205q0 -163 -109 -250q-109 -86 -289 -86h-340l-235 246h326q200 0 303 80q98 76 98 264q0 28 -16 78q-14 42 -45 86zM659 324q-57 32 -200 32h-41v-262h-271v506h254
q116 0 185 -72q73 -76 73 -204z" />
    <glyph glyph-name="uni044D" unicode="&#x44d;" horiz-adv-x="1433" 
d="M1008 496q-27 -138 -150 -246h-233l-273 246h656zM434 940l-264 203q130 86 293 86q129 0 276 -78q133 -74 176 -162l-4 -4q-112 33 -200 33q-136 0 -277 -78zM1393 461q0 190 -121 346q-123 154 -314 293q75 -72 127 -176q62 -121 62 -279q0 -167 -84 -326
q-87 -155 -236 -249q-148 -97 -335 -97q-216 0 -410 138q85 -180 246 -273q160 -92 379 -92q200 0 356 102q161 102 244 267q86 167 86 346z" />
    <glyph glyph-name="uni044E" unicode="&#x44e;" horiz-adv-x="2109" 
d="M463 -246h-141l-281 250h113v614h307zM457 1030v-311h-305v586zM1386 1028q-140 0 -276 -80q-138 -78 -217 -215q-82 -145 -82 -299q0 -120 61 -260l-4 -4q-141 41 -221 188q-82 164 -82 316q0 126 78 264q79 140 203 215q130 86 291 86q134 0 278 -78q136 -74 176 -162
l-6 -6q-112 35 -199 35zM2066 469q0 196 -118 346q-108 138 -312 295q65 -65 123 -178q64 -122 64 -279q0 -173 -84 -323q-78 -154 -234 -250q-146 -98 -340 -98q-214 0 -409 137l-2 -4q309 -361 628 -361q207 0 357 103q156 99 243 266q84 161 84 346z" />
    <glyph glyph-name="uni044F" unicode="&#x44f;" horiz-adv-x="1044" 
d="M549 936q-16 -3 -31 -10q-3 -2 -9 -7.5t-9 -7.5q-12 -12 -15 -14q-49 -58 -49 -178q0 -22 4 -96q-154 0 -229 75q-42 42 -57 95q-15 49 -15 122q0 77 33 144q34 66 98 96q73 33 199 33q64 0 80 -2v-250zM352 399q-6 3 -26 15q-15 12 -21 12q-42 34 -106 106
q-69 75 -88 146q54 -66 114 -103q67 -39 115 -47q70 -12 109 -14zM971 1030v-1276h-133l-283 252h107v1299zM549 49l-232 -295h-59l-217 250h98l410 512v-467z" />
    <glyph glyph-name="uni0451" unicode="&#x451;" horiz-adv-x="921" 
d="M606 1300l248 -260v-88h-414v-225h-278v481h444v92zM842 483v-98h-402v-293h-278v541h432v94zM625 104l247 -256v-100h-559l-268 252h580v104zM137 1520v225l164 -166v-227h-72l-159 168h67zM522 1524v227l168 -168v-231h-80l-172 172h84z" />
    <glyph glyph-name="uni0452" unicode="&#x452;" 
 />
    <glyph glyph-name="uni0453" unicode="&#x453;" 
 />
    <glyph glyph-name="uni0454" unicode="&#x454;" 
 />
    <glyph glyph-name="uni0455" unicode="&#x455;" 
 />
    <glyph glyph-name="uni0456" unicode="&#x456;" 
 />
    <glyph glyph-name="uni0457" unicode="&#x457;" 
 />
    <glyph glyph-name="uni0458" unicode="&#x458;" 
 />
    <glyph glyph-name="uni0459" unicode="&#x459;" 
 />
    <glyph glyph-name="uni045A" unicode="&#x45a;" 
 />
    <glyph glyph-name="uni045B" unicode="&#x45b;" 
 />
    <glyph glyph-name="uni045C" unicode="&#x45c;" 
 />
    <glyph glyph-name="uni045E" unicode="&#x45e;" 
 />
    <glyph glyph-name="uni045F" unicode="&#x45f;" 
 />
    <glyph glyph-name="uni0490" unicode="&#x490;" 
 />
    <glyph glyph-name="uni0491" unicode="&#x491;" 
 />
    <glyph glyph-name="Wgrave" unicode="&#x1e80;" 
 />
    <glyph glyph-name="wgrave" unicode="&#x1e81;" 
 />
    <glyph glyph-name="Wacute" unicode="&#x1e82;" 
 />
    <glyph glyph-name="wacute" unicode="&#x1e83;" 
 />
    <glyph glyph-name="Wdieresis" unicode="&#x1e84;" 
 />
    <glyph glyph-name="wdieresis" unicode="&#x1e85;" 
 />
    <glyph glyph-name="Ygrave" unicode="&#x1ef2;" 
 />
    <glyph glyph-name="ygrave" unicode="&#x1ef3;" 
 />
    <glyph glyph-name="endash" unicode="&#x2013;" horiz-adv-x="1228" 
d="M1262 328v-68h-1039l-241 201h1024v102z" />
    <glyph glyph-name="emdash" unicode="&#x2014;" horiz-adv-x="2334" 
d="M23 461h2043h5v102l256 -235v-68h-2044h-9z" />
    <glyph glyph-name="uni2015" unicode="&#x2015;" 
 />
    <glyph glyph-name="underscoredbl" unicode="&#x2017;" 
 />
    <glyph glyph-name="quoteleft" unicode="&#x2018;" horiz-adv-x="456" 
d="M281 1133l106 -433h-84l-278 224h100l-84 376z" />
    <glyph glyph-name="quoteright" unicode="&#x2019;" horiz-adv-x="491" 
d="M453 1116l-146 -416h-94l-193 224h111l133 376z" />
    <glyph glyph-name="quotesinglbase" unicode="&#x201a;" 
 />
    <glyph glyph-name="quotereversed" unicode="&#x201b;" 
 />
    <glyph glyph-name="quotedblleft" unicode="&#x201c;" horiz-adv-x="831" 
d="M281 1133l106 -433h-84l-278 224h104l-88 376zM668 1133l104 -433h-84l-280 224h104l-88 376z" />
    <glyph glyph-name="quotedblright" unicode="&#x201d;" horiz-adv-x="872" 
d="M483 1087l-211 -366h-112l-172 199h112l215 380zM956 1087l-217 -366h-110l-172 199h114l213 380z" />
    <glyph glyph-name="quotedblbase" unicode="&#x201e;" horiz-adv-x="872" 
d="M492 41l-216 -369h-112l-172 203h117l210 381zM965 43l-217 -371h-111l-172 203h115l213 381z" />
    <glyph glyph-name="dagger" unicode="&#x2020;" 
 />
    <glyph glyph-name="daggerdbl" unicode="&#x2021;" 
 />
    <glyph glyph-name="bullet" unicode="&#x2022;" horiz-adv-x="1024" 
d="M727 604q0 46 -12 92q-11 42 -37 86q-25 43 -53 62l4 4q303 -242 303 -449q0 -149 -105 -254q-101 -101 -252 -104q-91 0 -167 43q-80 44 -138 102q-18 18 -69 69.5t-84 84.5l4 4q50 -50 121 -74q76 -26 131 -26q146 0 250 104t104 256z" />
    <glyph glyph-name="ellipsis" unicode="&#x2026;" horiz-adv-x="2048" 
d="M1149 -72v-180h-133l-223 252h110v236zM1833 -72v-180h-133l-223 252h106v236zM469 -72v-180h-133l-227 252h110v236z" />
    <glyph glyph-name="perthousand" unicode="&#x2030;" horiz-adv-x="2164" 
d="M1804 449q-196 -27 -205 -265q6 -82 21 -129h-2q-4 -2 -10 -4q-65 3 -111 68q-45 62 -45 178q0 130 68 207q67 76 147 76q58 0 94 -33q37 -34 43 -98zM1137 453q-192 -27 -201 -273q6 -91 16 -125h-2q-1 0 -2 -0.5t-3.5 -1.5t-4.5 -2q-63 3 -111 70q-45 70 -45 176
q0 130 70 209q69 78 150 78q56 0 92 -33q35 -35 41 -98zM2044 205q0 -172 -74 -275q-74 -102 -182 -102q-154 0 -285 180v8q73 -49 150 -49q110 0 180 94q72 93 72 238q0 165 -54 238q193 -123 193 -332zM1376 209q0 -174 -73 -275q-73 -102 -183 -102q-150 0 -284 180v8
q74 -53 147 -53q128 0 191 115q63 111 63 246q0 128 -49 213q188 -130 188 -332zM1204 1204l-323 -571q-57 -26 -107 -107q-49 -76 -49 -166l-309 -544h-64l-168 184h123l746 1327zM659 788l-151 -268q-7 -4 -33 -10q-30 -7 -59 -10q-158 9 -285 188q73 -42 158 -51
q119 3 182 108q61 104 61 246q0 141 -53 221q185 -120 185 -335v-50q0 -4 -5 -39zM436 1120q-196 -15 -205 -280q2 -20 7 -58q1 -5 2 -16.5t2 -15.5q2 -10 2 -25h-8q-58 0 -107 61q-50 61 -53 175q4 6 4 10v2q0 131 67 207q63 75 150 75q59 0 96 -34t43 -101z" />
    <glyph glyph-name="minute" unicode="&#x2032;" 
 />
    <glyph glyph-name="second" unicode="&#x2033;" 
 />
    <glyph glyph-name="guilsinglleft" unicode="&#x2039;" horiz-adv-x="567" 
d="M399 436l-110 -147l274 -541h-127l-305 252h121l-260 315l252 314z" />
    <glyph glyph-name="guilsinglright" unicode="&#x203a;" horiz-adv-x="567" 
d="M-59 0h122l261 311l-252 318l288 -97l211 -260l-374 -524h-84z" />
    <glyph glyph-name="exclamdbl" unicode="&#x203c;" 
 />
    <glyph glyph-name="uni203E" unicode="&#x203e;" 
 />
    <glyph glyph-name="fraction" unicode="&#x2044;" 
 />
    <glyph glyph-name="uni207F" unicode="&#x207f;" 
 />
    <glyph glyph-name="franc" unicode="&#x20a3;" 
 />
    <glyph glyph-name="lira" unicode="&#x20a4;" 
 />
    <glyph glyph-name="peseta" unicode="&#x20a7;" 
 />
    <glyph glyph-name="Euro" unicode="&#x20ac;" 
 />
    <glyph glyph-name="uni2105" unicode="&#x2105;" 
 />
    <glyph glyph-name="uni2113" unicode="&#x2113;" 
 />
    <glyph glyph-name="uni2116" unicode="&#x2116;" horiz-adv-x="2129" 
d="M1356 1049v-1295h-10l-269 223v1328h8zM653 999l316 -395v-377h-8l-859 1078h4zM440 713v-959h-100l-289 246v2h113v1057h6zM1815 309l251 -233v-66h-417l-234 197h397zM1823 989q-191 -30 -197 -272q6 -92 16 -125q-69 0 -110 59q-45 65 -45 185q0 129 61 211
q60 77 144 77q48 0 88 -34q34 -27 43 -101zM2066 750q0 -178 -69 -275q-63 -97 -180 -100q-149 0 -277 174v10q63 -52 139 -55q104 0 168 94q72 90 72 240q0 166 -51 237q198 -122 198 -325z" />
    <glyph glyph-name="trademark" unicode="&#x2122;" horiz-adv-x="2027" 
d="M555 932v-744h-119l-205 203h117v742h273v100l135 -137v-164h-201zM231 1133v-201h-67l-201 201h268zM1079 608v-420h-118l-205 203h121v742h4zM1153 1028l119 -289l-60 -159l-260 657h9zM1548 391h113v846l207 -205v-844h-119l-201 199l-100 -199h-72l-200 203h71
l297 729h4v-729z" />
    <glyph glyph-name="Omega" unicode="&#x2126;" 
 />
    <glyph glyph-name="estimated" unicode="&#x212e;" 
 />
    <glyph glyph-name="oneeighth" unicode="&#x215b;" 
 />
    <glyph glyph-name="threeeighths" unicode="&#x215c;" 
 />
    <glyph glyph-name="fiveeighths" unicode="&#x215d;" 
 />
    <glyph glyph-name="seveneighths" unicode="&#x215e;" 
 />
    <glyph glyph-name="arrowleft" unicode="&#x2190;" 
 />
    <glyph glyph-name="arrowup" unicode="&#x2191;" 
 />
    <glyph glyph-name="arrowright" unicode="&#x2192;" 
 />
    <glyph glyph-name="arrowdown" unicode="&#x2193;" 
 />
    <glyph glyph-name="arrowboth" unicode="&#x2194;" 
 />
    <glyph glyph-name="arrowupdn" unicode="&#x2195;" 
 />
    <glyph glyph-name="arrowupdnbse" unicode="&#x21a8;" 
 />
    <glyph glyph-name="partialdiff" unicode="&#x2202;" 
 />
    <glyph glyph-name="Delta" unicode="&#x2206;" 
 />
    <glyph glyph-name="product" unicode="&#x220f;" 
 />
    <glyph glyph-name="summation" unicode="&#x2211;" 
 />
    <glyph glyph-name="minus" unicode="&#x2212;" 
 />
    <glyph glyph-name="uni2215" unicode="&#x2215;" 
 />
    <glyph glyph-name="uni2219" unicode="&#x2219;" 
 />
    <glyph glyph-name="radical" unicode="&#x221a;" 
 />
    <glyph glyph-name="infinity" unicode="&#x221e;" 
 />
    <glyph glyph-name="orthogonal" unicode="&#x221f;" 
 />
    <glyph glyph-name="intersection" unicode="&#x2229;" 
 />
    <glyph glyph-name="integral" unicode="&#x222b;" 
 />
    <glyph glyph-name="approxequal" unicode="&#x2248;" 
 />
    <glyph glyph-name="notequal" unicode="&#x2260;" 
 />
    <glyph glyph-name="equivalence" unicode="&#x2261;" 
 />
    <glyph glyph-name="lessequal" unicode="&#x2264;" 
 />
    <glyph glyph-name="greaterequal" unicode="&#x2265;" 
 />
    <glyph glyph-name="house" unicode="&#x2302;" 
 />
    <glyph glyph-name="revlogicalnot" unicode="&#x2310;" 
 />
    <glyph glyph-name="integraltp" unicode="&#x2320;" 
 />
    <glyph glyph-name="integralbt" unicode="&#x2321;" 
 />
    <glyph glyph-name="SF100000" unicode="&#x2500;" 
 />
    <glyph glyph-name="SF110000" unicode="&#x2502;" 
 />
    <glyph glyph-name="SF010000" unicode="&#x250c;" 
 />
    <glyph glyph-name="SF030000" unicode="&#x2510;" 
 />
    <glyph glyph-name="SF020000" unicode="&#x2514;" 
 />
    <glyph glyph-name="SF040000" unicode="&#x2518;" 
 />
    <glyph glyph-name="SF080000" unicode="&#x251c;" 
 />
    <glyph glyph-name="SF090000" unicode="&#x2524;" 
 />
    <glyph glyph-name="SF060000" unicode="&#x252c;" 
 />
    <glyph glyph-name="SF070000" unicode="&#x2534;" 
 />
    <glyph glyph-name="SF050000" unicode="&#x253c;" 
 />
    <glyph glyph-name="SF430000" unicode="&#x2550;" 
 />
    <glyph glyph-name="SF240000" unicode="&#x2551;" 
 />
    <glyph glyph-name="SF510000" unicode="&#x2552;" 
 />
    <glyph glyph-name="SF520000" unicode="&#x2553;" 
 />
    <glyph glyph-name="SF390000" unicode="&#x2554;" 
 />
    <glyph glyph-name="SF220000" unicode="&#x2555;" 
 />
    <glyph glyph-name="SF210000" unicode="&#x2556;" 
 />
    <glyph glyph-name="SF250000" unicode="&#x2557;" 
 />
    <glyph glyph-name="SF500000" unicode="&#x2558;" 
 />
    <glyph glyph-name="SF490000" unicode="&#x2559;" 
 />
    <glyph glyph-name="SF380000" unicode="&#x255a;" 
 />
    <glyph glyph-name="SF280000" unicode="&#x255b;" 
 />
    <glyph glyph-name="SF270000" unicode="&#x255c;" 
 />
    <glyph glyph-name="SF260000" unicode="&#x255d;" 
 />
    <glyph glyph-name="SF360000" unicode="&#x255e;" 
 />
    <glyph glyph-name="SF370000" unicode="&#x255f;" 
 />
    <glyph glyph-name="SF420000" unicode="&#x2560;" 
 />
    <glyph glyph-name="SF190000" unicode="&#x2561;" 
 />
    <glyph glyph-name="SF200000" unicode="&#x2562;" 
 />
    <glyph glyph-name="SF230000" unicode="&#x2563;" 
 />
    <glyph glyph-name="SF470000" unicode="&#x2564;" 
 />
    <glyph glyph-name="SF480000" unicode="&#x2565;" 
 />
    <glyph glyph-name="SF410000" unicode="&#x2566;" 
 />
    <glyph glyph-name="SF450000" unicode="&#x2567;" 
 />
    <glyph glyph-name="SF460000" unicode="&#x2568;" 
 />
    <glyph glyph-name="SF400000" unicode="&#x2569;" 
 />
    <glyph glyph-name="SF540000" unicode="&#x256a;" 
 />
    <glyph glyph-name="SF530000" unicode="&#x256b;" 
 />
    <glyph glyph-name="SF440000" unicode="&#x256c;" 
 />
    <glyph glyph-name="upblock" unicode="&#x2580;" 
 />
    <glyph glyph-name="dnblock" unicode="&#x2584;" 
 />
    <glyph glyph-name="block" unicode="&#x2588;" 
 />
    <glyph glyph-name="lfblock" unicode="&#x258c;" 
 />
    <glyph glyph-name="rtblock" unicode="&#x2590;" 
 />
    <glyph glyph-name="ltshade" unicode="&#x2591;" 
 />
    <glyph glyph-name="shade" unicode="&#x2592;" 
 />
    <glyph glyph-name="dkshade" unicode="&#x2593;" 
 />
    <glyph glyph-name="filledbox" unicode="&#x25a0;" 
 />
    <glyph glyph-name="H22073" unicode="&#x25a1;" 
 />
    <glyph glyph-name="H18543" unicode="&#x25aa;" 
 />
    <glyph glyph-name="H18551" unicode="&#x25ab;" 
 />
    <glyph glyph-name="filledrect" unicode="&#x25ac;" 
 />
    <glyph glyph-name="triagup" unicode="&#x25b2;" 
 />
    <glyph glyph-name="triagrt" unicode="&#x25ba;" 
 />
    <glyph glyph-name="triagdn" unicode="&#x25bc;" 
 />
    <glyph glyph-name="triaglf" unicode="&#x25c4;" 
 />
    <glyph glyph-name="lozenge" unicode="&#x25ca;" 
 />
    <glyph glyph-name="circle" unicode="&#x25cb;" 
 />
    <glyph glyph-name="H18533" unicode="&#x25cf;" 
 />
    <glyph glyph-name="invbullet" unicode="&#x25d8;" 
 />
    <glyph glyph-name="invcircle" unicode="&#x25d9;" 
 />
    <glyph glyph-name="openbullet" unicode="&#x25e6;" 
 />
    <glyph glyph-name="smileface" unicode="&#x263a;" 
 />
    <glyph glyph-name="invsmileface" unicode="&#x263b;" 
 />
    <glyph glyph-name="sun" unicode="&#x263c;" 
 />
    <glyph glyph-name="female" unicode="&#x2640;" 
 />
    <glyph glyph-name="male" unicode="&#x2642;" 
 />
    <glyph glyph-name="spade" unicode="&#x2660;" 
 />
    <glyph glyph-name="club" unicode="&#x2663;" 
 />
    <glyph glyph-name="heart" unicode="&#x2665;" 
 />
    <glyph glyph-name="diamond" unicode="&#x2666;" 
 />
    <glyph glyph-name="musicalnote" unicode="&#x266a;" 
 />
    <glyph glyph-name="musicalnotedbl" unicode="&#x266b;" 
 />
    <glyph glyph-name="uniF001" unicode="&#xf001;" horiz-adv-x="0" 
 />
    <glyph glyph-name="uniF002" unicode="&#xf002;" horiz-adv-x="0" 
 />
    <glyph glyph-name="uniFB01" unicode="&#xfb01;" 
 />
    <glyph glyph-name="uniFB02" unicode="&#xfb02;" 
 />
  </font>
</defs>
</svg>
